<?xml version="1.0" standalone="no"?>
<!DOCTYPE svg PUBLIC "-//W3C//DTD SVG 1.1//EN" "http://www.w3.org/Graphics/SVG/1.1/DTD/svg11.dtd" >
<svg xmlns="http://www.w3.org/2000/svg">
<metadata>
Created by FontPrep 20130207 at Sun Dec  7 15:23:39 2014
 By Lawrence Chin
Copyright (c) 1992, 2002 Adobe Systems Incorporated.  All Rights Reserved. (c) 1981, 2002 Heidelberger Druckmaschinen AG. All rights reserved.
</metadata>
<defs>
<font id="bb9719e72003152ad280e2c664776bd6" horiz-adv-x='1024' >
  <font-face 
    font-family="DidotLTStd-Italic"
    font-weight="400"
    font-style="italic"
    font-stretch="normal"
    units-per-em="2048"
    panose-1="0 0 5 0 0 0 0 0 0 0"
    ascent="1477"
    descent="-571"
    x-height="879"
    cap-height="1458"
    bbox="-539 -596 2294 1929.01"
    underline-thickness="102"
    underline-position="-102"
    slope="-12"
    unicode-range="U+0020-FB02"
  />
<missing-glyph horiz-adv-x="1181" 
d="M260 1239v-1044l348 522zM322 102h696l-348 523zM731 717l348 -522v1044zM670 809l348 522h-696zM158 0v1434h1024v-1434h-1024z" />
    <glyph glyph-name="f_i" unicode="fi" horiz-adv-x="1175" 
d="M772 61q0 -59 58 -59t114 64t80 120l25 -10q-1 -6 -13 -26t-21 -36q-9 -17 -32 -44q-81 -97 -190 -97q-147 0 -148 123q0 53 25 119l223 635h-430l-225 -703q-75 -238 -201 -434q-70 -109 -164 -173q-95 -64 -185 -64t-139 35t-49 91t28 84t69 27q59 0 59 -57
q0 -26 -14 -50t-15 -36q0 -66 72 -66q184 0 330 447l290 899h-190l8 29h191l55 165q70 209 229 361q160 152 351 151q104 0 157 -53q54 -53 54 -107q1 -110 -107 -110q-86 0 -86 60q0 32 29 66t28 61q0 55 -86 55q-123 0 -229 -115t-166 -285l-86 -249h573l-241 -695
q-31 -88 -31 -123z" />
    <glyph glyph-name="f_l" unicode="fl" horiz-adv-x="1175" 
d="M983 1569q35 0 82 -6t49 -7h164l-487 -1372q-31 -88 -31 -123q0 -59 58 -59t114 65q55 65 80 119l24 -10q0 -8 -12 -26q-12 -19 -31 -53t-57 -65q-74 -59 -156 -59q-147 0 -147 123q0 53 24 119l390 1092q-47 20 -47 62t53 69q41 27 45 41q0 61 -117 61q-196 0 -347 -272
q-36 -66 -63 -140l-94 -249h211l-8 -29h-213l-279 -803q-76 -223 -228 -397t-308 -174q-78 0 -132 35t-54 92t27 84q28 27 69 26q59 0 59 -57q0 -33 -18 -61t-9 -58q9 -31 70 -33q98 0 196 140t183 391l281 815h-193l8 29h195q42 131 70 201t89 164q60 95 144 173
q164 152 346 152z" />
    <glyph glyph-name=".notdef" horiz-adv-x="1181" 
d="M260 1239v-1044l348 522zM322 102h696l-348 523zM731 717l348 -522v1044zM670 809l348 522h-696zM158 0v1434h1024v-1434h-1024z" />
    <glyph glyph-name=".null" horiz-adv-x="0" 
 />
    <glyph glyph-name="nonmarkingreturn" horiz-adv-x="681" 
 />
    <glyph glyph-name="space" unicode=" " horiz-adv-x="491" 
 />
    <glyph glyph-name="exclam" unicode="!" horiz-adv-x="645" 
d="M70 70q0 40 28 68t68 28t68 -28t28 -68t-29 -69q-29 -28 -67 -28t-68 28q-28 28 -28 69zM242 365l184 1021q18 98 96 99q37 1 64 -19q26 -20 26 -55t-28 -115l-328 -931h-14z" />
    <glyph glyph-name="quotedbl" unicode="&#x22;" horiz-adv-x="909" 
d="M707 1407q0 78 51 78t51 -78q0 -41 -2 -64l-31 -450h-37l-30 450q-2 23 -2 64zM436 1407q0 78 51 78t52 -78q0 -41 -2 -64l-31 -450h-37l-31 450q-2 23 -2 64z" />
    <glyph glyph-name="numbersign" unicode="#" horiz-adv-x="1138" 
d="M465 928l-148 -406h347l147 406h-346zM303 485l-176 -485h-43l176 485h-272l14 37h272l148 406h-272l14 37h272l178 493h43l-178 -493h346l179 493h43l-179 -493h273l-15 -37h-272l-147 -406h272l-14 -37h-273l-176 -485h-43l176 485h-346z" />
    <glyph glyph-name="dollar" unicode="$" horiz-adv-x="1290" 
d="M129 315q0 -113 81 -207t230 -108l187 694l-78 64q-203 164 -203 342q0 125 62 212t165 130q102 43 267 43l30 114h29l-31 -116q80 -6 156 -36t127 -31t68 50l28 -8l-98 -373h-33q10 57 10 93q0 104 -60 183t-206 93l-162 -604l115 -92q82 -66 122 -106t73 -104t32 -145
q0 -131 -84 -237t-200 -150t-295 -45l-41 -147h-29l41 147q-100 6 -195 45t-120 39q-55 0 -88 -63l-29 8l109 406h28q-8 -53 -8 -91zM651 674l-182 -674q217 0 327 99t109 233q0 76 -34 134t-121 128zM473 1163q0 -70 38 -131t132 -137l31 -25l157 586q-168 0 -263 -77
t-95 -216z" />
    <glyph glyph-name="percent" unicode="%" horiz-adv-x="1593" 
d="M123 1008q0 80 41 177t134 177t211 80q119 0 185 -71t66 -177q0 -160 -111 -300t-287 -140q-106 0 -173 66q-66 67 -66 188zM238 942q0 -160 137 -160q195 0 259 379q11 66 11 99q0 154 -141 153q-92 0 -156 -83q-110 -144 -110 -388zM948 160q0 -160 137 -160
q80 0 139 66q85 97 121 313q11 66 11 98q0 154 -142 154q-92 0 -155 -83q-111 -146 -111 -388zM344 0l887 1481l35 -23l-887 -1483zM834 225q0 80 40 177q40 98 134 178t212 80t184 -72q66 -70 66 -176q0 -160 -110 -300t-287 -141q-107 1 -173 67t-66 187z" />
    <glyph glyph-name="ampersand" unicode="&#x26;" horiz-adv-x="1744" 
d="M1039 1456q-50 0 -83 -14t-53 -48q-21 -34 -33 -62q-26 -59 -32 -265q159 52 259 146q65 59 65 117t-37 92q-36 34 -86 34zM299 567q0 -391 133 -521q47 -46 111 -46q147 0 274 205q-152 250 -151 565q0 114 12 223l-117 -45q-150 -59 -206 -151t-56 -230zM1026 1485
q78 0 121 -42t43 -110q0 -166 -352 -295q8 -322 53 -522l29 -129h4q12 25 39 81t38 79q101 195 158 247q56 53 96 69t106 17q65 1 115 -40q50 -42 50 -96q0 -108 -82 -107q-74 0 -74 70q0 27 8 49t8 45q0 51 -63 51q-117 0 -227 -190q-34 -60 -96 -184l-68 -136
q20 -113 76 -215q18 -35 34 -57t56 -46t100 -24t121 58t106 166t70 216l29 -6q0 -14 -26 -106t-49 -138q-109 -216 -287 -217q-179 -2 -328 207l-27 -39q-115 -170 -295 -170q-133 0 -257 96q-62 48 -101 134t-39 194q0 209 125 361t311 221l131 47q19 136 96 289
q39 76 104 124q66 48 144 48z" />
    <glyph glyph-name="quotesingle" unicode="'" 
d="M401 1407q-1 78 51 78t52 -78q0 -41 -2 -64l-31 -450h-37l-31 450q-2 23 -2 64z" />
    <glyph glyph-name="parenleft" unicode="(" 
d="M139 25q0 -141 35 -319t82 -281l-41 -21q-117 338 -117 663t142 698q74 193 212 381t326 335l33 -27q-328 -266 -500 -633t-172 -796z" />
    <glyph glyph-name="parenright" unicode=")" 
d="M332 860q0 141 -35 319t-82 281l41 21q117 -338 117 -663t-142 -698q-74 -194 -212 -382t-326 -334l-33 27q328 267 500 633t172 796z" />
    <glyph glyph-name="asterisk" unicode="*" horiz-adv-x="909" 
d="M223 1081q25 0 61 -7t84 -7t160 20q-104 92 -180 122q-76 31 -100 51q-23 20 -23 53q-2 33 21 59q24 26 62 25q38 0 60 -33q7 -12 19 -41q47 -113 152 -227q16 82 16 144t-7 98t-7 67q-1 31 23 55t67 25q82 0 82 -72q-1 -39 -63 -115t-99 -206q141 41 208 102t103 61
q36 -1 59 -25q21 -24 21 -58t-26 -61q-26 -26 -58 -26t-90 9q-57 9 -213 -15q117 -104 210 -134t93 -91q0 -36 -24 -60t-62 -24q-63 0 -92 90q-35 96 -135 211q-30 -145 -9 -246q7 -39 7 -65t-26 -50q-27 -24 -59 -24t-59 24t-27 58t51 92q50 59 109 215q-126 -43 -200 -103
t-115 -59q-70 0 -74 82q4 86 80 86z" />
    <glyph glyph-name="plus" unicode="+" horiz-adv-x="1214" 
d="M498 0v473h-471v37h471v473h41v-473h471v-37h-471v-473h-41z" />
    <glyph glyph-name="comma" unicode="," 
d="M162 -88q0 51 -10 76q-8 0 -23 -11q-20 -4 -47 -4q-26 0 -48 26q-22 25 -22 67t28 71t85 29t94 -43t37 -117t-37 -142t-93 -106q-98 -68 -163 -88l-8 27q99 35 153 100q54 64 54 115z" />
    <glyph glyph-name="hyphen" unicode="-" horiz-adv-x="757" 
d="M106 377l33 123h357l-33 -123h-357z" />
    <glyph glyph-name="period" unicode="." 
d="M12 70q0 40 29 68t68 28t67 -28t29 -68q0 -40 -29 -69q-30 -28 -68 -28t-67 28t-29 69z" />
    <glyph glyph-name="slash" unicode="/" horiz-adv-x="606" 
d="M-158 -18l885 1513l37 -20l-885 -1514z" />
    <glyph glyph-name="zero" unicode="0" horiz-adv-x="987" 
d="M164 223q0 -103 46 -163t122 -60q98 0 195 146q155 233 265 733q40 187 40 297t-46 174q-45 64 -118 63q-102 0 -202 -148q-160 -239 -263 -747q-39 -192 -39 -295zM37 428q0 226 96 468q97 242 243 394t288 152t219 -124q76 -124 75 -310q0 -254 -101 -500t-245 -391
t-281 -145q-136 0 -215 115t-79 341z" />
    <glyph glyph-name="one" unicode="1" horiz-adv-x="987" 
d="M305 29l348 1249q-180 -115 -338 -182l-14 24q104 42 267 140t247 182h29l-395 -1413h219l-9 -29h-559l9 29h196z" />
    <glyph glyph-name="two" unicode="2" horiz-adv-x="987" 
d="M233 1085q-77 -1 -77 87t118 179q119 91 277 91t263 -93q106 -93 106 -219t-76 -229q-76 -104 -226 -233l-618 -529v-4h537q137 0 163 90l25 78h31l-80 -303h-826l-10 27q262 250 623 620q293 303 293 518q0 111 -56 180t-157 69q-102 0 -167 -54q-65 -53 -65 -117l8 -78
q1 -35 -23 -57t-63 -23z" />
    <glyph glyph-name="three" unicode="3" horiz-adv-x="987" 
d="M737 1214q0 199 -166 199q-176 0 -176 -174q0 -57 -19 -84t-69 -27q-67 0 -67 82t97 157t234 75t233 -76t97 -184q0 -68 -38 -132q-104 -177 -417 -284l3 -4q137 0 236 -64t99 -215q0 -178 -202 -355t-430 -177q-129 0 -188 42q-58 42 -58 82q0 70 71 70q55 0 91 -63
t60 -83q26 -19 85 -19q158 0 283 168t125 350q1 106 -55 174t-153 68t-173 -31l-9 30q20 5 94 22q138 31 225 84q87 54 137 152t50 217z" />
    <glyph glyph-name="four" unicode="4" horiz-adv-x="987" 
d="M1012 1397q0 -19 -14 -33t-56 -47q-602 -438 -942 -930h524l144 533h155l-143 -533h217l-8 -29h-217l-88 -329h164l-9 -29h-481l8 29h162l88 329h-561l8 29q317 459 789 954q59 66 87 83q29 18 101 18t72 -45z" />
    <glyph glyph-name="five" unicode="5" horiz-adv-x="987" 
d="M766 1413q104 0 166 66l18 -15q-2 -2 -17 -28t-23 -37q-8 -10 -25 -35q-18 -25 -57 -52q-61 -42 -130 -42h-88q-100 0 -196 10l-103 -365q240 -8 359 -104t118 -254q0 -223 -202 -421t-447 -197q-100 1 -172 31t-71 87q0 33 21 56q22 23 44 23q23 0 35 -3q12 -2 21 -9
t15 -11q17 -10 41 -72q23 -61 122 -61q162 0 300 154t138 364q0 72 -25 125q-24 53 -60 81q-88 68 -304 68l178 651q137 -10 344 -10z" />
    <glyph glyph-name="six" unicode="6" horiz-adv-x="987" 
d="M160 205q0 -97 44 -151t134 -54q145 0 227 150q53 96 95 252t42 249q0 91 -45 149t-137 58t-219 -104q-57 -135 -99 -294t-42 -255zM548 887q118 1 208 -103t90 -254q0 -202 -155 -380t-345 -179q-158 -1 -236 103t-77 262q0 229 118 489q118 261 298 439t348 178
q103 0 165 -48t62 -108q0 -84 -90 -84q-37 0 -60 18t-22 46l8 71q0 63 -114 63t-201 -120q-88 -121 -174 -342l-49 -125l4 -4q104 78 222 78z" />
    <glyph glyph-name="seven" unicode="7" horiz-adv-x="987" 
d="M150 27q0 27 51 98l551 823q98 147 176 322h-533q-83 0 -111 -48q-29 -48 -51 -122h-28l82 313h712q-14 -104 -149 -381l-471 -960q-31 -61 -58 -81q-28 -19 -77 -20q-94 0 -94 56z" />
    <glyph glyph-name="eight" unicode="8" horiz-adv-x="987" 
d="M823 1210q0 203 -202 203q-117 0 -191 -77t-74 -195q0 -80 31 -134t115 -122l90 -72q109 59 170 163t61 234zM129 280q0 -116 68 -198t178 -82q168 0 259 115t91 252q0 63 -27 115t-57 82t-98 87l-113 92l-45 -24q-141 -76 -199 -199q-58 -124 -57 -240zM375 -29
q-157 1 -265 107t-108 240t88 231q88 98 217 164l101 51q-86 72 -126 135t-40 160q0 151 103 267t276 116q129 0 229 -75t100 -208q0 -66 -21 -104t-33 -58t-41 -44q-28 -24 -42 -37q-14 -14 -49 -36t-48 -29q-12 -7 -52 -29t-48 -27l82 -70q154 -133 154 -279t-121 -303
q-57 -74 -152 -123t-204 -49z" />
    <glyph glyph-name="nine" unicode="9" horiz-adv-x="987" 
d="M291 791q0 -236 178 -236q113 0 229 109q6 18 43 127t49 153q42 145 44 279q0 190 -191 190q-86 -1 -157 -67q-119 -112 -174 -367q-21 -102 -21 -188zM445 526q-123 0 -211 102t-87 255q0 201 155 380t345 179q158 0 236 -104t78 -261q0 -231 -108 -489t-284 -437
t-352 -180q-125 0 -186 47t-62 109q0 84 90 84q37 0 60 -18t22 -46l-8 -71q0 -64 125 -64t206 103t175 379l37 106l-4 4q-104 -78 -227 -78z" />
    <glyph glyph-name="colon" unicode=":" 
d="M221 805q0 39 29 67q30 28 68 29q38 0 67 -29q29 -30 29 -68t-29 -67t-68 -29t-67 30q-28 28 -29 67zM25 70q1 40 29 68t67 28t67 -28t29 -68q0 -40 -29 -69q-30 -28 -68 -28t-67 28q-28 28 -28 69z" />
    <glyph glyph-name="semicolon" unicode=";" 
d="M264 805q0 39 28 67t68 29q40 0 69 -29q28 -30 28 -68t-28 -67t-69 -29q-40 0 -68 30q-28 28 -28 67zM207 -88q0 51 -10 76q-4 0 -16 -8t-47 -7q-34 0 -56 26q-22 25 -21 67q0 42 28 71t85 29t94 -43t37 -117t-37 -142t-93 -106q-98 -68 -163 -88l-8 27q99 35 153 100
q54 64 54 115z" />
    <glyph glyph-name="less" unicode="&#x3c;" horiz-adv-x="1214" 
d="M1012 942l-1096 -450l1096 -451v-41l-1164 483v17l1164 483v-41z" />
    <glyph glyph-name="equal" unicode="=" horiz-adv-x="1214" 
d="M27 297v37h983v-37h-983zM27 649v37h983v-37h-983z" />
    <glyph glyph-name="greater" unicode="&#x3e;" horiz-adv-x="1214" 
d="M23 41l1095 451l-1095 450v41l1163 -483v-17l-1163 -483v41z" />
    <glyph glyph-name="question" unicode="?" horiz-adv-x="833" 
d="M102 70q0 40 29 68t68 28t67 -28t29 -68q0 -40 -29 -69q-30 -28 -68 -28t-67 28t-29 69zM721 1270q0 186 -194 186q-91 0 -131 -51t-40 -150q0 -76 -84 -75q-33 0 -52 26t-19 51q0 82 94 155q95 73 245 73t237 -81t87 -208q0 -197 -162 -319l-157 -117q-38 -26 -55 -40
q-17 -15 -56 -47t-67 -82t-39 -93l-35 -131h-27l29 110q29 123 86 187l160 184q180 207 180 422z" />
    <glyph glyph-name="at" unicode="@" horiz-adv-x="1705" 
d="M1081 898q0 66 -37 110t-102 45q-117 0 -213 -162t-96 -316q0 -84 36 -147t115 -63q117 0 189 151q25 49 66 183q42 133 42 199zM1569 877q0 233 -170 398t-463 165q-222 0 -406 -112t-281 -282t-97 -360q0 -284 204 -478t518 -194t560 195l26 -37q-276 -201 -599 -200
t-555 200q-232 200 -232 522t251 556t603 235q305 0 494 -174t190 -432q0 -211 -130 -387t-284 -177q-166 0 -182 183q-86 -182 -254 -183q-119 0 -198 85t-79 208q-1 190 141 342t296 152q39 0 84 -16q92 -32 112 -136l39 129h121l-139 -479q-48 -162 13 -208
q34 -26 79 -25q115 1 227 161t111 349z" />
    <glyph glyph-name="A" unicode="A" horiz-adv-x="1478" 
d="M918 631l-9 622h-4l-438 -622h451zM-180 0l8 29h176l1028 1462h47l37 -1462h221l-8 -29h-631l9 29h223l-12 573h-472l-401 -573h207l-8 -29h-424z" />
    <glyph glyph-name="B" unicode="B" horiz-adv-x="1327" 
d="M690 803q162 0 263 105t102 288q0 106 -65 170t-179 64h-86l-225 -627h190zM592 774h-105l-264 -743q97 -11 201 -11t206 48q178 83 251 279q31 83 30 163q0 168 -131 233q-61 31 -188 31zM772 1458q215 0 345 -82t130 -233q0 -98 -59 -173q-91 -115 -306 -166
q-73 -17 -128 -20l-4 -4q72 -14 138 -50t107 -73t71 -96t30 -131q0 -135 -104 -237q-104 -101 -257 -151q-152 -50 -319 -50l-299 8h-299l8 29h209l506 1401h-238l8 28h461z" />
    <glyph glyph-name="C" unicode="C" horiz-adv-x="1327" 
d="M1280 1202q0 125 -87 190q-87 64 -231 64t-281 -130q-232 -221 -356 -684q-51 -184 -51 -330t90 -229t257 -83q281 0 446 315l27 -14q-180 -330 -478 -330q-133 0 -233 49q-99 48 -155 134q-111 170 -109 401q0 178 83 353q158 334 484 500q152 77 270 77t226 -40
q106 -40 137 -40q57 0 86 59l31 -6l-142 -395h-26q12 80 12 139z" />
    <glyph glyph-name="D" unicode="D" horiz-adv-x="1630" 
d="M1331 1071q0 111 -46 192t-116 117q-98 49 -256 50h-176l-499 -1399l245 -11q109 0 193 24t184 87q217 137 344 399t127 541zM944 1458q276 0 418 -159t141 -398q1 -164 -73 -327q-74 -164 -200 -292t-312 -209t-396 -81l-346 8h-346l8 29h211l504 1401h-236l9 28h618z
" />
    <glyph glyph-name="E" unicode="E" horiz-adv-x="1402" 
d="M1321 1262q0 78 -36 123q-36 44 -128 45h-432l-227 -633h192q135 0 235 156q27 44 41 73q15 29 17 31h29l-215 -596h-29q27 73 27 149t-45 117t-123 41h-140l-264 -739h479q64 -1 126 33t104 71q41 37 89 106t61 91t42 71h29l-143 -401h-1192l8 29h213l502 1401h-238
l8 28h1139l-125 -348h-29q25 74 25 152z" />
    <glyph glyph-name="F" unicode="F" horiz-adv-x="1366" 
d="M1182 1430h-447l-241 -666h290q160 0 281 248l6 12h29l-213 -598h-29q25 86 25 160q0 149 -193 149h-207l-254 -706h240l-8 -29h-633l8 29h209l502 1401h-234l9 28h1157l-125 -348h-29q51 209 -15 281q-36 39 -128 39z" />
    <glyph glyph-name="G" unicode="G" horiz-adv-x="1478" 
d="M938 51q-14 0 -116 -40t-221 -40q-118 0 -218 49q-99 48 -155 134q-111 170 -109 401q0 178 83 353q158 334 484 500q152 77 270 77t226 -40q106 -40 137 -40q57 0 86 59l31 -6l-142 -395h-26q12 80 12 139q0 125 -87 190q-87 64 -231 64t-281 -130q-232 -221 -356 -684
q-51 -184 -51 -330t90 -229t257 -83q113 0 187 54t103 141l101 284h-234l8 29h584l-8 -29h-164l-172 -479h-33q-4 51 -55 51z" />
    <glyph glyph-name="H" unicode="H" horiz-adv-x="1630" 
d="M-174 0l8 29h211l502 1401h-234l9 28h632l-8 -28h-213l-239 -670h659l242 670h-236l8 28h631l-8 -28h-211l-504 -1401h236l-8 -29h-635l8 29h213l254 702h-660l-254 -702h236l-8 -29h-631z" />
    <glyph glyph-name="I" unicode="I" horiz-adv-x="796" 
d="M-170 0l8 29h211l504 1401h-236l9 28h635l-9 -28h-215l-501 -1401h233l-8 -29h-631z" />
    <glyph glyph-name="J" unicode="J" horiz-adv-x="948" 
d="M-16 281q96 0 96 -78q0 -37 -28 -78t-27 -76q0 -49 59 -49q29 0 49 5t61 47q40 42 72 122l56 131l401 1125h-231l8 28h628l-8 -28h-211l-342 -953q-41 -115 -89 -199t-130 -167q-133 -139 -268 -140q-88 0 -150 43q-61 42 -61 116t34 112t81 39z" />
    <glyph glyph-name="K" unicode="K" horiz-adv-x="1441" 
d="M1348 1430h-228l8 28h424l-8 -28h-141l-758 -588l422 -813h195l-9 -29h-622l8 29h221l-360 721h-15l-258 -721h234l-8 -29h-629l8 29h211l502 1401h-234l8 28h629l-8 -28h-211l-233 -652h16l836 647v5z" />
    <glyph glyph-name="L" unicode="L" horiz-adv-x="1290" 
d="M705 29q213 0 421 372h29l-143 -401h-1192l8 29h213l502 1401h-236l8 28h635l-8 -28h-215l-502 -1401h480z" />
    <glyph glyph-name="M" unicode="M" horiz-adv-x="1744" 
d="M797 0l8 29h213l504 1401h-4l-988 -1430l29 1430h-6l-498 -1401h234l-8 -29h-478l9 29h213l501 1401h-235l8 28h438l-24 -1136h4l784 1136h424l-8 -28h-211l-502 -1401h234l-8 -29h-633z" />
    <glyph glyph-name="N" unicode="N" horiz-adv-x="1441" 
d="M887 -29l-352 1385h-5l-473 -1327h234l-8 -29h-476l9 29h211l499 1401h-233l8 28h387l291 -1155h4l401 1127h-235l8 28h479l-8 -28h-211l-516 -1459h-14z" />
    <glyph glyph-name="O" unicode="O" horiz-adv-x="1593" 
d="M279 324q0 -324 323 -324q137 0 258 86t202 217t139 287q112 301 112 530q0 336 -318 336q-131 0 -250 -83t-201 -213q-170 -269 -236 -581q-29 -144 -29 -255zM123 559q0 172 80 343q158 339 487 504q158 79 297 79t235 -53q96 -52 150 -142q105 -177 105 -397
q0 -219 -125 -433t-333 -351t-424 -137t-344 154t-128 433z" />
    <glyph glyph-name="P" unicode="P" horiz-adv-x="1290" 
d="M618 643q211 0 352 158q140 158 140 360q0 133 -80 201t-223 68h-80l-274 -771q98 -16 165 -16zM807 1458q229 0 360 -108t131 -260t-108 -264t-257 -162q-148 -50 -270 -50t-221 17l-217 -602h236l-10 -29h-631l8 29h213l502 1401h-236l8 28h492z" />
    <glyph glyph-name="Q" unicode="Q" horiz-adv-x="1593" 
d="M279 324q0 -324 323 -324q137 0 258 86t202 217t139 287q112 301 112 530q0 336 -318 336q-131 0 -250 -83t-201 -213q-170 -269 -236 -581q-29 -144 -29 -255zM1251 -391h-82q-371 0 -512 172l-84 98q-57 68 -119 100q-62 31 -100 55q-37 24 -83 70q-45 46 -75 104
q-74 145 -74 334q1 189 81 360q158 339 487 504q158 79 297 79t235 -53q96 -52 150 -142q105 -177 105 -397q0 -219 -125 -433t-333 -351t-429 -138q-33 0 -74 4l-4 -4q68 -51 106 -67t128 -24q92 -8 151 -37t135 -117t195 -88h24v-29z" />
    <glyph glyph-name="R" unicode="R" horiz-adv-x="1327" 
d="M639 803q164 0 244 51q172 111 172 348q0 111 -68 169t-174 59h-86l-225 -627h137zM815 1458q159 0 287 -69q66 -35 106 -100t39 -149q0 -84 -46 -149t-106 -101t-155 -66t-192 -38l-5 -6q90 -12 163 -48q140 -69 138 -206q0 -70 -26 -194t-25 -184q0 -62 31 -97t71 -35
t66 11l8 -27q-25 -12 -100 -12q-256 0 -256 221q0 37 24 189t23 194q0 86 -60 134t-222 48h-84l-269 -745h236l-10 -29h-631l10 29h211l500 1401h-236l12 28h498z" />
    <glyph glyph-name="S" unicode="S" horiz-adv-x="1214" 
d="M45 283q0 -131 113 -207q112 -76 274 -76t264 95t102 237t-126 258l-146 133q-106 96 -158 182t-53 191q1 168 141 278t328 111q94 0 200 -37t149 -37q44 0 67 53l31 -6l-141 -391h-25q18 68 18 121q0 139 -84 204q-84 64 -223 64t-232 -76t-93 -192q0 -80 42 -142
t117 -131l183 -163q178 -160 178 -331t-152 -310t-416 -140q-109 0 -231 42t-159 42t-59 -19t-26 -46l-28 6l145 407h27q-27 -76 -27 -120z" />
    <glyph glyph-name="T" unicode="T" horiz-adv-x="1402" 
d="M641 1430q-96 0 -197 -77q-38 -30 -80 -82t-92 -131t-51 -85h-28l143 403h1235l-144 -403h-28q18 80 18 176q0 197 -188 199h-203l-502 -1401h234l-8 -29h-633l8 29h215l502 1401h-201z" />
    <glyph glyph-name="U" unicode="U" horiz-adv-x="1517" 
d="M334 262q0 -114 72 -188t198 -74q391 0 547 494l291 936h-234l9 28h479l-8 -28h-213l-301 -963q-80 -254 -222 -375t-359 -121q-217 -1 -319 105t-102 238t84 362l270 754h-233l8 28h633l-8 -28h-215l-314 -875q-63 -178 -63 -293z" />
    <glyph glyph-name="V" unicode="V" horiz-adv-x="1441" 
d="M555 1430v-1215h4l846 1215h-203l8 28h414l-8 -28h-170l-1018 -1459h-53l-8 1459h-224l9 28h632l-8 -28h-221z" />
    <glyph glyph-name="W" unicode="W" horiz-adv-x="2123" 
d="M373 -29l16 1459h-225l8 28h602l-8 -28h-199l-12 -1207h4l535 801l4 406h-215l8 28h620l-8 -28h-229l-12 -1192h4l796 1192h-196l8 28h420l-8 -28h-183l-979 -1459h-41l9 990h-5l-663 -990h-51z" />
    <glyph glyph-name="X" unicode="X" horiz-adv-x="1402" 
d="M813 29l-176 663l-584 -663h203l-8 -29h-400l9 29h155l611 694l-187 707h-219l8 28h627l-8 -28h-217l151 -578l502 578h-195l9 28h399l-8 -28h-164l-528 -607l206 -794h218l-9 -29h-624l8 29h221z" />
    <glyph glyph-name="Y" unicode="Y" horiz-adv-x="1327" 
d="M115 29h229l225 633l-145 768h-223l8 28h631l-9 -28h-227l133 -703l625 703h-201l8 28h402l-8 -28h-160l-651 -736l-240 -665h236l-9 -29h-633z" />
    <glyph glyph-name="Z" unicode="Z" horiz-adv-x="1327" 
d="M698 1430q-219 0 -417 -371h-29l141 399h981l-1237 -1429h559q207 0 416 372h29l-146 -401h-1097l1237 1430h-437z" />
    <glyph glyph-name="bracketleft" unicode="[" 
d="M-100 -573l542 2031h254l-12 -41h-209l-522 -1949h213l-12 -41h-254z" />
    <glyph glyph-name="backslash" unicode="\" horiz-adv-x="606" 
d="M371 -18l-41 -21l-94 1514l40 20z" />
    <glyph glyph-name="bracketright" unicode="]" 
d="M512 1458l-543 -2031h-254l13 41h209l522 1949h-213l12 41h254z" />
    <glyph glyph-name="asciicircum" unicode="^" horiz-adv-x="1214" 
d="M260 625h-43l354 833h17l354 -833h-43l-319 755z" />
    <glyph glyph-name="underscore" unicode="_" horiz-adv-x="1024" 
d="M1024 -217h-1024v63h1024v-63z" />
    <glyph glyph-name="grave" unicode="`" 
d="M162 1412q0 30 18 48t55 18t72 -55l203 -293h-31l-272 216q-45 36 -45 66z" />
    <glyph glyph-name="a" unicode="a" horiz-adv-x="1099" 
d="M766 756q0 42 -28 82q-28 39 -91 39q-96 0 -193 -81t-164 -197t-109 -239t-42 -210q-1 -148 107 -148t226 116t146 191l109 301q39 104 39 146zM698 73q0 -59 50 -59t97 42q46 42 63 73t32 64l27 -15q-96 -205 -260 -205q-135 0 -136 125q0 53 23 115h-4
q-51 -66 -92 -108t-120 -87t-166 -45t-152 68q-64 68 -64 191q0 124 71 248q131 229 380 366q109 59 181 59t114 -36t42 -91h4l35 101h144l-224 -621q-45 -127 -45 -185z" />
    <glyph glyph-name="b" unicode="b" horiz-adv-x="1062" 
d="M160 139q0 -137 127 -137q117 0 239 132t197 306q74 174 74 308q0 61 -37 95t-101 34q-109 0 -229 -127q-120 -126 -194 -300q-76 -174 -76 -311zM924 631q0 -154 -110 -312q-110 -157 -260 -251q-272 -170 -435 -33q-74 61 -74 180q0 74 43 191l399 1122h-180l8 28h328
l-319 -890l4 -2q63 96 151 169t197 73q108 0 178 -82q70 -81 70 -193z" />
    <glyph glyph-name="c" unicode="c" horiz-adv-x="833" 
d="M20 286q0 134 82 278t220 242t284 99q80 0 135 -38t56 -126q0 -109 -105 -108q-66 0 -65 51q0 33 27 68q28 35 28 67q0 57 -88 58q-123 0 -225 -119q-101 -119 -153 -270t-52 -259q0 -107 53 -167t153 -60t178 66q79 66 128 149l29 -16q-154 -227 -367 -228
q-147 0 -233 89q-85 90 -85 224z" />
    <glyph glyph-name="d" unicode="d" horiz-adv-x="1099" 
d="M766 756q0 42 -28 82q-28 39 -91 39q-96 0 -193 -81t-164 -197t-109 -239t-42 -210q-1 -148 107 -148t226 116t146 191l109 301q39 104 39 146zM698 73q0 -59 50 -59t97 42q46 42 63 73t32 64l27 -15q-96 -205 -260 -205q-135 0 -136 125q0 53 23 115h-4
q-51 -66 -92 -108t-120 -87t-166 -45t-152 68q-64 68 -64 191q0 124 71 248q131 229 380 366q109 59 181 59t114 -36t42 -91h4l267 750h-181l9 28h325l-465 -1298q-45 -127 -45 -185z" />
    <glyph glyph-name="e" unicode="e" horiz-adv-x="872" 
d="M680 778q0 43 -27 71t-80 28q-119 0 -218 -115t-144 -246q70 -8 104 -8q145 0 255 80t110 190zM4 291q0 127 83 272t219 243t272 99q92 0 160 -40q68 -39 69 -115t-61 -134q-98 -92 -308 -124q-137 -24 -237 -5q-106 -319 2 -429q55 -56 133 -56q125 0 205 73
q48 44 80 88q31 45 38 52l25 -14q-2 -2 -16 -25t-48 -63q-115 -136 -296 -140q-160 -1 -240 95t-80 223z" />
    <glyph glyph-name="f" unicode="f" horiz-adv-x="681" 
d="M1108 1407q0 -49 -23 -81t-69 -32q-84 0 -84 58q0 30 24 64t25 54q0 58 -74 58t-137 -40q-185 -117 -272 -454l-43 -155h252l-9 -29h-252l-182 -694q-76 -289 -218 -485t-314 -195q-66 0 -117 30t-51 105q0 41 24 69t72 27q59 0 59 -53q0 -14 -10 -46t-10 -52
q0 -51 61 -52q182 0 318 500l225 846h-194l8 29h194l31 112q66 238 228 402q163 164 339 163q95 0 147 -50t52 -99z" />
    <glyph glyph-name="g" unicode="g" horiz-adv-x="1062" 
d="M240 -567q172 0 304 105t132 237q0 164 -232 172l-288 10l-58 -45q-115 -92 -114 -244q0 -119 74 -177t182 -58zM537 877q-115 -1 -192 -135t-77 -242t41 -148q41 -39 125 -39t147 70q117 132 115 334q0 160 -159 160zM244 -596q-160 0 -278 78t-118 171t69 167t142 112
l58 31q-76 18 -92 34q-15 15 -37 38t-23 90q0 127 146 205l75 41q-61 72 -61 159q0 144 137 260t281 115q92 0 155 -39t93 -90q23 35 36 52q15 16 49 36t80 20t86 -36q39 -37 39 -90q0 -84 -88 -84q-29 0 -48 15t-19 38t20 45t21 51q0 33 -39 33q-63 0 -119 -108
q31 -43 31 -107q0 -127 -134 -242t-266 -115t-229 64l-43 -20q-133 -62 -133 -144t186 -94l262 -12q274 -14 275 -230q0 -156 -144 -300t-370 -144z" />
    <glyph glyph-name="h" unicode="h" horiz-adv-x="1099" 
d="M729 891q84 0 135 -45q51 -46 51 -102t-38 -162l-134 -379q-33 -90 -32 -135q0 -66 53 -66q111 0 197 184l22 -10q-2 -2 -11 -22q-19 -42 -76 -111q-57 -68 -146 -69t-132 30t-43 84t25 127l172 490q16 47 16 79t-19 56q-19 23 -60 22q-97 0 -227 -129t-193 -305
l-154 -428h-143l555 1528h-187l9 28h323l-342 -927h4q203 262 375 262z" />
    <glyph glyph-name="i" unicode="i" 
d="M403 1362q0 39 28 68q28 28 69 28q40 0 68 -28t28 -68q0 -39 -28 -68q-28 -28 -68 -28t-69 28q-28 28 -28 68zM214 2q58 0 114 65q55 65 80 119l24 -10q0 -8 -12 -26q-12 -19 -22 -36q-35 -63 -94 -102q-60 -39 -128 -39q-147 0 -147 123q0 52 37 154l210 600h-182l8 29
h326l-242 -695q-31 -88 -30 -123q0 -59 58 -59z" />
    <glyph glyph-name="j" unicode="j" 
d="M436 1362q0 39 28 68q28 28 68 28t69 -28q28 -28 28 -68q0 -39 -28 -68q-28 -28 -69 -28q-40 0 -68 28t-28 68zM-310 -522q-74 0 -126 38q-53 38 -53 107q0 39 25 67q26 28 67 27q68 0 67 -55q0 -22 -12 -50t-12 -48q0 -57 69 -58q106 0 203 269l391 1075h-186l8 29h330
l-326 -906q-23 -61 -59 -135q-108 -216 -232 -304q-80 -56 -154 -56z" />
    <glyph glyph-name="k" unicode="k" horiz-adv-x="1062" 
d="M383 569q115 0 246 183q113 154 223 153q104 0 104 -112q0 -47 -24 -73t-62 -26q-74 0 -73 56q0 18 8 37t8 32q0 25 -35 25t-116 -103l-52 -61q-80 -102 -139 -121v-6q107 -14 143 -80q18 -33 29 -84l53 -272q20 -102 70 -103q76 0 156 185l28 -9q-70 -158 -150 -197
q-40 -19 -96 -19t-93 31q-36 32 -54 116l-55 256q-23 112 -40 128q-38 35 -89 36h-45l-193 -541h-143l547 1528h-183l9 28h327l-352 -987h43z" />
    <glyph glyph-name="l" unicode="l" 
d="M214 2q58 0 114 65q55 65 80 119l24 -10q0 -8 -12 -26q-12 -19 -22 -36q-35 -63 -94 -102q-60 -39 -128 -39q-147 0 -147 123q0 51 37 154l456 1278h-182l8 28h326l-488 -1372q-31 -88 -30 -123q0 -59 58 -59z" />
    <glyph glyph-name="m" unicode="m" horiz-adv-x="1554" 
d="M698 891q86 0 130 -45q42 -44 42 -100t-10 -93h4q64 88 152 163t176 75t139 -45q51 -46 51 -102t-39 -162l-133 -379q-74 -201 23 -201q96 0 194 184l23 -10q-2 -2 -11 -22q-19 -42 -76 -111q-57 -68 -146 -69t-132 30t-43 88t25 123l172 490q16 47 16 81q-1 76 -83 76
t-203 -131t-185 -303l-153 -428h-144l240 662q29 82 29 118q0 82 -66 82q-88 0 -213 -118t-194 -316l-154 -428h-143l297 850h-187l8 29h324l-78 -234h4q68 92 163 169t181 77z" />
    <glyph glyph-name="n" unicode="n" horiz-adv-x="1099" 
d="M729 891q84 0 135 -45q51 -46 51 -102t-38 -162l-134 -379q-33 -90 -32 -135q0 -66 53 -66q111 0 197 184l22 -10q-2 -2 -11 -22q-19 -42 -76 -111q-57 -68 -146 -69t-132 30t-43 84t25 127l172 490q16 47 16 79t-19 56q-19 23 -60 22q-97 0 -227 -129t-193 -305
l-154 -428h-143l297 850h-187l9 29h323l-84 -252h4q199 264 375 264z" />
    <glyph glyph-name="o" unicode="o" horiz-adv-x="985" 
d="M530 877q-114 0 -208 -125q-94 -124 -140 -276t-47 -260q0 -108 48 -162q48 -52 134 -52t167 79q135 132 207 407q28 108 28 176q0 213 -189 213zM0 322q0 236 175 410t366 173q149 -1 231 -109t82 -239q0 -225 -176 -404t-359 -180q-141 0 -230 104t-89 245z" />
    <glyph glyph-name="p" unicode="p" horiz-adv-x="1099" 
d="M406 2q82 0 160 72t129 175q52 103 84 216t32 197q0 215 -160 215q-61 0 -123 -39t-84 -66q-63 -74 -75 -98l-162 -457q43 -215 199 -215zM655 905q145 0 223 -103q78 -102 76 -238q0 -136 -68 -266t-201 -227q-132 -97 -284 -98q-80 -1 -137 53t-71 142h-5l-251 -713
h174l-9 -28h-464l8 28h147l492 1395h-191l8 29h324l-43 -134h4q41 59 111 109t157 51z" />
    <glyph glyph-name="q" unicode="q" horiz-adv-x="1099" 
d="M764 744q0 56 -32 94q-32 39 -87 39q-115 1 -237 -143t-193 -316q-72 -172 -72 -281q0 -57 29 -96t84 -39q102 0 225 120t152 204l115 319q16 43 16 99zM0 217q0 117 69 245q132 244 378 382q112 61 192 61t115 -44t39 -99h4l39 117h143l-510 -1424h166l-8 -28h-490l8 28
h181l266 738l-4 4q-176 -223 -348 -224q-96 -1 -168 63t-72 181z" />
    <glyph glyph-name="r" unicode="r" horiz-adv-x="833" 
d="M798 850q42 -41 40 -94q-2 -106 -111 -107q-66 0 -65 58q0 27 30 55t28 51q-2 49 -58 49q-78 0 -191 -140t-170 -304l-147 -418h-144l221 631q35 102 68 219h-178l8 29h315q-16 -80 -71 -236l4 -4q2 2 26 38q25 36 35 48t37 45t71 67q68 54 139 54t113 -41z" />
    <glyph glyph-name="s" unicode="s" horiz-adv-x="720" 
d="M158 2q94 0 154 53t60 121t-57 143l-102 136q-31 39 -42 55q-40 58 -40 121q0 100 94 187t232 87q86 0 138 -38t52 -97q0 -86 -84 -86q-31 0 -51 17t-20 42t13 47t13 33q0 53 -69 54q-91 -1 -141 -51t-50 -113t78 -168l121 -158q43 -53 43 -133q0 -127 -113 -204
t-224 -77t-183 43t-72 117q0 45 29 70t62 25q64 -1 64 -46l-20 -92q0 -88 115 -88z" />
    <glyph glyph-name="t" unicode="t" horiz-adv-x="606" 
d="M220 2q64 0 120 64t82 120l24 -10q0 -2 -8 -16t-14 -28t-22 -35q-17 -21 -31 -39t-45 -39q-68 -46 -143 -46t-115 37t-39 94q0 57 47 189l200 557h-184l8 29h185l73 200h144l-74 -200h223l-8 -29h-223l-234 -651q-31 -88 -30 -129q0 -68 64 -68z" />
    <glyph glyph-name="u" unicode="u" horiz-adv-x="1062" 
d="M223 2q109 0 245 146t194 311l145 420h143l-241 -695q-31 -88 -31 -123q0 -59 58 -59t114 64t80 120l24 -10q0 -8 -12 -26q-12 -19 -21 -37t-32 -44q-81 -96 -191 -96q-147 0 -147 123q0 53 33 140l-4 4q-197 -266 -361 -267q-88 0 -139 42t-51 120q0 31 39 148l200 567
h-182l8 29h330l-236 -676q-33 -92 -32 -127q0 -74 67 -74z" />
    <glyph glyph-name="v" unicode="v" horiz-adv-x="948" 
d="M211 75q0 42 -27 122l-43 118q-49 127 -49 191q0 168 240 377l43 37l18 -21l-28 -31q-103 -103 -125 -186q-12 -41 -13 -82q1 -104 55 -247t56 -197q80 61 115 92q35 32 109 102q144 138 143 271q0 70 -34 129t-34 90q0 66 94 65q100 0 100 -149q0 -225 -276 -459
l-104 -90q-31 -27 -77 -62q-109 -83 -161 -172l-27 15q25 45 25 87z" />
    <glyph glyph-name="w" unicode="w" horiz-adv-x="1517" 
d="M795 600q0 -98 55 -244t57 -200q80 61 115 92q34 32 108 102q144 138 144 271q0 70 -34 129t-34 90q0 66 94 65q100 0 101 -149q0 -225 -277 -459l-104 -90q-31 -27 -77 -62q-111 -84 -161 -172l-26 15q24 45 24 87t-26 122l-43 118q-6 20 -15 45q-8 25 -12 40t-8 28
q-18 -20 -64 -61t-69 -66l-105 -90q-31 -27 -77 -61q-116 -87 -160 -177l-27 15q25 45 25 89t-27 124l-43 118q-49 127 -49 191q0 168 239 377l43 33l19 -21l-16 -14q-17 -15 -25 -25t-44 -50t-59 -99q-22 -59 -22 -107q1 -104 55 -246t56 -198q80 61 114 92q34 32 109 102
q143 136 143 271q0 70 -34 129t-33 90q0 61 94 61q41 -2 67 -36t27 -70q65 74 131 121l19 -21q-126 -126 -155 -217q-13 -41 -13 -82z" />
    <glyph glyph-name="x" unicode="x" horiz-adv-x="1138" 
d="M902 905q87 0 133 -47q46 -46 46 -104q0 -122 -108 -123q-63 0 -64 51q0 31 29 67t29 68q0 59 -73 59q-72 0 -146 -94q-119 -153 -200 -458q-30 -115 -30 -166q0 -156 109 -156q141 0 262 223l26 -12q-93 -166 -186 -213q-53 -27 -127 -27q-74 -1 -120 55t-62 119
q-49 -55 -83 -86t-94 -59t-141 -29q-81 0 -129 46q-47 45 -47 105t32 90t79 30q59 0 59 -54q0 -28 -28 -60t-27 -69q0 -59 92 -59q139 0 250 262q45 111 88 253t43 216q0 143 -113 144q-83 0 -151 -75t-105 -151l-28 13q117 242 299 241q154 0 198 -176q43 59 122 117
t166 59z" />
    <glyph glyph-name="y" unicode="y" horiz-adv-x="948" 
d="M211 905q117 0 172 -106t55 -262t-45 -367h4l314 565q43 74 70 110q46 60 129 60t83 -80q1 -39 -25 -63t-65 -25q-39 0 -39 37q0 16 12 34t11 30q0 31 -29 26q-45 -2 -127 -149l-373 -676l-118 -223q-86 -160 -166 -250t-168 -90t-136 39t-49 102q0 88 97 88q59 0 59 -51
q0 -24 -10 -48t-10 -48q1 -51 73 -53q72 -1 155 121t140 326t58 413q0 512 -95 512q-106 0 -155 -242l-29 8q38 147 67 185q60 77 140 77z" />
    <glyph glyph-name="z" unicode="z" horiz-adv-x="948" 
d="M723 47q16 16 16 42t-47 67q-8 6 -26 18t-24 35q-7 24 -7 49t25 42q26 17 57 17q92 1 92 -117t-70 -172t-180 -55q-49 0 -180 33l-98 25q-72 18 -158 18t-152 -76l-24 19l663 745q-344 13 -396 13t-67 -54l-10 -39l-28 7q8 26 27 102t24 88q12 33 49 33l504 -17
q29 0 53 29l20 -16l-634 -707q182 0 313 -65l100 -50q117 -55 158 -14z" />
    <glyph glyph-name="braceleft" unicode="{" horiz-adv-x="833" 
d="M127 -334q0 62 47 230l57 219q21 75 21 123q1 107 -81 150q-56 31 -136 50l2 11q204 32 271 117q38 48 54 87t37 117l72 268q45 164 90 248t132 128t237 44l-10 -37q-98 0 -163 -18q-119 -33 -183 -179q-28 -65 -56 -175l-45 -160l-29 -125q-44 -166 -118 -237t-232 -85
q80 -4 125 -41q78 -61 78 -163q0 -53 -31 -160l-65 -244q-29 -125 -29 -172q0 -92 60 -142t163 -57l-10 -36q-79 13 -124 31q-134 54 -134 208z" />
    <glyph glyph-name="bar" unicode="|" horiz-adv-x="454" 
d="M207 -512v2048h41v-2048h-41z" />
    <glyph glyph-name="braceright" unicode="}" horiz-adv-x="833" 
d="M578 1227q0 -53 -50 -238l-59 -219q-18 -74 -18 -123q0 -105 75 -148q60 -35 138 -50l-2 -11q-198 -32 -271 -114q-39 -45 -57 -88t-39 -119l-74 -271q-68 -246 -162 -334t-301 -85l11 36q178 0 262 76t136 267t60 224l15 60q6 29 8 33q47 165 122 235t232 84
q-84 10 -125 43q-74 59 -73 160q0 49 30 162l66 244q31 117 30 176q0 92 -59 140t-160 54l11 37q254 -37 254 -231z" />
    <glyph glyph-name="asciitilde" unicode="~" horiz-adv-x="1214" 
d="M219 565q-118 0 -173 -91q-37 -61 -64 -142h-37q75 276 273 274q64 0 185 -43l254 -96q123 -47 168 -47q154 -1 232 235h37q-80 -276 -272 -276q-62 0 -181 45l-250 96q-111 45 -172 45z" />
    <glyph glyph-name="uni00A0" unicode="&#xa0;" horiz-adv-x="491" 
 />
    <glyph glyph-name="exclamdown" unicode="&#xa1;" horiz-adv-x="645" 
d="M575 819q1 -41 -27 -69t-69 -27q-41 0 -69 28q-28 29 -27 69q0 40 28 68q29 28 69 28t68 -28q27 -28 27 -69zM123 -596q-37 0 -64 19t-27 55t29 114l328 932h14l-184 -1022q-18 -98 -96 -98z" />
    <glyph glyph-name="cent" unicode="&#xa2;" horiz-adv-x="987" 
d="M76 283q0 139 71 282q72 143 204 241t282 99q43 0 57 -4l82 156l29 -13l-76 -147q127 -33 127 -149t-104 -115q-66 0 -66 47q0 10 28 57t28 80t-31 43l-426 -807q55 -51 149 -51t173 66t128 149l29 -16q-154 -227 -367 -228q-76 0 -139 29l-84 -160l-29 13l84 161
q-73 37 -111 109t-38 158zM219 219q0 -86 39 -141l416 790q-29 8 -66 9q-92 0 -169 -70t-123 -175t-72 -216t-25 -197z" />
    <glyph glyph-name="sterling" unicode="&#xa3;" horiz-adv-x="1214" 
d="M61 109q0 -43 36 -67t88 -24t98 36q45 36 67 77q-80 61 -166 62q-123 0 -123 -84zM426 340q0 125 -43 412h-199l9 28h186q-14 158 -14 193q1 193 153 353t348 159q119 -1 197 -61t78 -152q0 -57 -26 -98q-25 -41 -89 -41t-63 51q0 37 31 86q32 49 32 93t-47 69t-113 24
q-172 0 -242 -134t-100 -450l-8 -92h311l-8 -28h-305l-25 -275q-18 -205 -77 -299q164 -43 305 -43t196 30t74 73l8 12l25 -12q-137 -266 -318 -267q-70 0 -120 22t-150 85l-57 37q-84 -125 -197 -125q-66 0 -106 33t-39 87q0 54 45 82q91 59 305 -8q43 86 43 156z" />
    <glyph glyph-name="currency" unicode="&#xa4;" horiz-adv-x="1138" 
d="M197 731q1 -153 109 -263t262 -110t265 109q109 109 109 263t-110 264t-264 110q-155 0 -263 -110t-108 -263zM154 732q0 161 108 280l-131 131l27 26l131 -131q125 109 279 109t280 -109l133 131l27 -26l-131 -131q109 -123 109 -283t-109 -278l131 -132l-27 -26
l-133 131q-115 -109 -273 -109t-286 109l-131 -131l-27 26l129 132q-106 120 -106 281z" />
    <glyph glyph-name="yen" unicode="&#xa5;" horiz-adv-x="987" 
d="M242 29l149 559h-403l6 28h405l23 78l-31 178h-325l6 29h313l-104 529h-189l8 28h547l-8 -28h-195l123 -707l488 707h-162l8 28h336l-8 -28h-133l-367 -529h315l-10 -29h-325l-123 -178l-23 -78h404l-9 -28h-403l-149 -559h198l-8 -29h-551l6 29h191z" />
    <glyph glyph-name="brokenbar" unicode="&#xa6;" horiz-adv-x="454" 
d="M248 666h-41v716h41v-716zM248 -358h-41v716h41v-716z" />
    <glyph glyph-name="section" unicode="&#xa7;" horiz-adv-x="1062" 
d="M154 535q0 -109 110 -197l170 -135q66 -49 111 -94q45 23 94 61t103 113q54 77 54 167t-124 191l-140 111q-93 75 -116 100l-80 -59q-92 -70 -137 -127t-45 -131zM891 515q0 -77 -41 -156q-40 -79 -104 -135q-115 -101 -179 -134q100 -86 101 -217q0 -177 -144 -323
t-356 -146q-147 0 -231 69t-84 165q0 57 29 92q30 34 71 34q84 -1 84 -67q0 -19 -14 -61t-15 -72q0 -59 51 -95t123 -36q139 1 249 109t110 261q0 81 -37 135t-121 119l-137 105q-166 127 -166 284q0 115 52 195t165 160l100 71q-72 82 -71 189q0 174 144 299t325 125
q121 0 195 -65t75 -150q0 -137 -102 -137q-33 0 -55 19t-21 48q0 29 25 70q26 41 26 87t-46 73t-108 26q-124 0 -234 -92t-110 -226t160 -255l137 -107q86 -68 120 -126t34 -135z" />
    <glyph glyph-name="dieresis" unicode="&#xa8;" 
d="M553 1362q0 39 29 68q30 28 68 28t67 -28t29 -68q0 -39 -30 -68q-28 -28 -67 -28t-67 28t-29 68zM176 1362q0 39 29 68q29 28 67 28t68 -28q29 -28 29 -68q0 -39 -29 -68q-29 -28 -68 -28q-40 0 -68 28t-28 68z" />
    <glyph glyph-name="copyright" unicode="&#xa9;" horiz-adv-x="1705" 
d="M1169 565v-262h-18q-23 27 -46 27t-97 -23t-138 -22q-166 0 -298 131t-132 321q0 191 126 327t313 136q57 0 119 -24t87 -23q25 0 50 25h18v-246h-14q-27 114 -86 182t-187 68q-74 0 -129 -30t-84 -73q-71 -105 -71 -345q0 -239 74 -335t220 -96q147 0 205 87
q31 46 44 79t30 96h14zM137 728q0 -296 208 -506t506 -210t508 210t210 507t-210 506t-508 209t-506 -210t-208 -506zM96 728q0 312 221 534t535 223q314 0 536 -222q222 -223 222 -535t-222 -534t-536 -222t-534 222q-222 222 -222 534z" />
    <glyph glyph-name="ordfeminine" unicode="&#xaa;" horiz-adv-x="659" 
d="M471 1419q-121 1 -225 -155t-105 -275q0 -78 74 -78q63 0 137 66t101 127l90 227q0 88 -72 88zM504 948q0 -37 33 -37t70 30t55 73l18 -8q-61 -123 -170 -123q-88 0 -88 69q0 18 16 80h-4q-109 -150 -241 -149q-59 0 -103 41q-43 41 -43 116q0 138 152 270t266 132
q43 0 70 -23t26 -55h4l21 61h94l-145 -370q-31 -82 -31 -107z" />
    <glyph glyph-name="guillemotleft" unicode="&#xab;" horiz-adv-x="833" 
d="M147 382q0 -138 125 -196l-12 -28q-52 18 -107 56q-112 77 -112 216q0 96 62 167q108 124 307 138v-28q-109 -7 -186 -97t-77 -228zM403 356q0 -138 125 -196l-12 -29q-49 17 -105 56q-114 78 -114 216q0 96 62 167q109 125 307 139v-29q-109 -8 -186 -97t-77 -227z" />
    <glyph glyph-name="logicalnot" unicode="&#xac;" horiz-adv-x="1214" 
d="M1010 297h-41v352h-942v37h983v-389z" />
    <glyph glyph-name="uni00AD" unicode="&#xad;" horiz-adv-x="757" 
d="M106 377l33 123h357l-33 -123h-357z" />
    <glyph glyph-name="registered" unicode="&#xae;" horiz-adv-x="1003" 
d="M215 1104q-1 -150 105 -255t256 -105t254 104q105 106 106 256q0 150 -106 255t-255 105q-150 0 -255 -105t-105 -255zM524 1126h51q70 0 70 88q0 53 -22 71q-23 17 -57 17t-42 -2v-174zM675 1284q34 -27 34 -65t-36 -69q-24 -19 -63 -24v-2q90 -16 105 -65q4 -17 7 -57
t5 -52q8 -39 33 -39q18 0 31 13l4 -6q-17 -14 -55 -14t-54 20t-20 65l-4 53q-6 76 -80 76h-58v-203h64v-8h-182v8h63v385h-63v9h106l55 2q74 0 108 -27zM195 1104q-1 158 111 270t270 111q158 0 269 -112q111 -111 111 -269t-112 -270t-269 -111q-158 -1 -269 111t-111 270z
" />
    <glyph glyph-name="macron" unicode="&#xaf;" 
d="M190 1294h576l-25 -61h-575z" />
    <glyph glyph-name="degree" unicode="&#xb0;" horiz-adv-x="819" 
d="M334 1208q0 -98 68 -167t167 -69q98 0 167 70q69 68 69 166t-69 167t-167 69q-99 0 -167 -69t-68 -167zM293 1208q0 115 81 196q82 81 196 81t195 -81t81 -196q0 -116 -81 -196t-196 -80t-195 80t-81 196z" />
    <glyph glyph-name="plusminus" unicode="&#xb1;" horiz-adv-x="1214" 
d="M27 0v37h983v-37h-983zM498 135v404h-471v36h471v408h41v-408h471v-36h-471v-404h-41z" />
    <glyph glyph-name="two.superior" unicode="&#xb2;" horiz-adv-x="589" 
d="M213 1214q-53 0 -53 58t76 106q76 49 186 49t172 -52t63 -131q0 -79 -49 -141t-147 -138l-355 -303v-7h302q90 0 106 54l16 36h33l-51 -182h-520l-8 23l374 368q193 178 193 308q0 61 -36 99t-99 38q-62 -1 -102 -21t-40 -43l5 -53q0 -68 -66 -68z" />
    <glyph glyph-name="three.superior" unicode="&#xb3;" horiz-adv-x="589" 
d="M541 1286q1 113 -105 113t-106 -103q0 -20 -14 -38t-42 -17q-59 0 -59 43q0 55 65 99q66 44 158 44t150 -44q58 -45 59 -111q0 -66 -60 -123q-61 -57 -119 -82t-116 -41v-4q88 0 154 -38t66 -137t-125 -205q-124 -106 -261 -107q-82 -1 -120 25t-39 49q0 23 14 35t33 13
q41 0 67 -49q35 -45 86 -45q86 0 162 97t76 202q0 59 -36 95q-37 36 -103 36t-109 -12l-6 33q133 22 197 56t99 91q34 57 34 125z" />
    <glyph glyph-name="acute" unicode="&#xb4;" 
d="M774 1420q0 -26 -17 -45t-71 -52l-328 -193h-28l282 285q60 63 94 63t51 -16t17 -42z" />
    <glyph glyph-name="mu" unicode="&#xb5;" horiz-adv-x="1062" 
d="M223 2q109 0 245 146t194 311l145 420h143l-241 -695q-31 -88 -31 -123q0 -59 58 -59t114 64t80 120l24 -10q0 -8 -12 -26q-12 -19 -21 -37t-32 -44q-81 -96 -191 -96q-147 0 -147 123q0 53 33 140l-4 4q-197 -266 -361 -267q-76 0 -98 66l-211 -612h-133l491 1423h-182
l8 29h330l-236 -676q-33 -92 -32 -127q0 -74 67 -74z" />
    <glyph glyph-name="paragraph" unicode="&#xb6;" horiz-adv-x="1175" 
d="M674 301l405 1129h-188l-404 -1129q-123 -340 -217 -482t-254 -167q307 7 498 297q63 93 99 188q36 96 61 164zM874 1458h519l-11 -28h-159l-404 -1129q-67 -190 -147 -317t-230 -226q-207 -135 -415 -135q-113 -1 -165 57t-52 112t34 87q35 33 97 33q90 0 90 -62
q0 -24 -29 -70t-29 -63q6 -39 47 -39q40 0 104 38t135 136t196 449l92 254q-152 19 -237 77t-128 153t-43 174q0 234 166 364q71 53 195 94t374 41z" />
    <glyph glyph-name="periodcentered" unicode="&#xb7;" 
d="M111 526q0 39 28 68q29 29 68 29t67 -29t29 -68q0 -40 -29 -68q-30 -28 -68 -28t-66 28t-29 68z" />
    <glyph glyph-name="cedilla" unicode="&#xb8;" 
d="M206 -133q58 0 102 -37t44 -123t-70 -148q-70 -63 -167 -63q-96 0 -156 60l18 24q69 -55 133 -55q64 -1 96 67t32 151t-76 83q-53 0 -90 -27l-25 33l164 160h41l-160 -152l4 -4q52 31 110 31z" />
    <glyph glyph-name="one.superior" unicode="&#xb9;" horiz-adv-x="589" 
d="M127 592h125l217 737q-117 -70 -219 -108l-8 26q143 53 321 180h31l-242 -835h137l-8 -29h-362z" />
    <glyph glyph-name="ordmasculine" unicode="&#xba;" horiz-adv-x="591" 
d="M231 1025q0 -120 113 -120q113 1 190 145t76 246q0 123 -123 123q-106 0 -181 -137t-75 -257zM137 1092q0 143 115 246q116 104 230 104t168 -65t55 -144q0 -135 -116 -243t-239 -107q-94 -1 -154 61t-59 148z" />
    <glyph glyph-name="guillemotright" unicode="&#xbb;" horiz-adv-x="833" 
d="M594 421q0 -83 -62 -154q-109 -124 -307 -138v29q109 8 186 97t77 227t-126 196l13 29q23 -8 47 -21q102 -49 144 -128q28 -54 28 -137zM340 450q0 -83 -62 -154q-108 -124 -307 -138v28q109 8 186 98t77 227q0 138 -125 196l12 28q219 -76 219 -285z" />
    <glyph glyph-name="onequarter" unicode="&#xbc;" horiz-adv-x="1476" 
d="M1391 864q59 0 59 -35q0 -23 -43 -47l-117 -86l-90 -73q-231 -195 -360 -383h305l84 305h106l-84 -305h140l-9 -29h-137l-51 -182h104l-8 -29h-309l8 29h98l54 182h-357q43 102 451 549q82 84 104 94t52 10zM301 -20l885 1478l37 -20l-885 -1479zM127 592h125l217 737
q-117 -70 -219 -108l-8 26q143 53 321 180h31l-242 -835h137l-8 -29h-362z" />
    <glyph glyph-name="onehalf" unicode="&#xbd;" horiz-adv-x="1476" 
d="M981 651q-53 -1 -53 57t76 107t186 49t172 -52t63 -131q0 -79 -49 -141t-147 -139l-355 -303v-6h302q90 0 106 53l16 37h33l-51 -182h-520l-8 23l374 368q193 178 193 307q0 62 -36 100t-99 38q-62 0 -102 -20t-40 -44l5 -53q0 -68 -66 -68zM301 -20l885 1478l37 -20
l-885 -1479zM127 592h125l217 737q-117 -70 -219 -108l-8 26q143 53 321 180h31l-242 -835h137l-8 -29h-362z" />
    <glyph glyph-name="threequarters" unicode="&#xbe;" horiz-adv-x="1476" 
d="M1391 864q59 0 59 -35q0 -23 -43 -47l-117 -86l-90 -73q-231 -195 -360 -383h305l84 305h106l-84 -305h140l-9 -29h-137l-51 -182h104l-8 -29h-309l8 29h98l54 182h-357q43 102 451 549q82 84 104 94t52 10zM301 -20l885 1478l37 -20l-885 -1479zM541 1286
q1 113 -105 113t-106 -103q0 -20 -14 -38t-42 -17q-59 0 -59 43q0 55 65 99q66 44 158 44t150 -44q58 -45 59 -111q0 -66 -60 -123q-61 -57 -119 -82t-116 -41v-4q88 0 154 -38t66 -137t-125 -205q-124 -106 -261 -107q-82 -1 -120 25t-39 49q0 23 14 35t33 13q41 0 67 -49
q35 -45 86 -45q86 0 162 97t76 202q0 59 -36 95q-37 36 -103 36t-109 -12l-6 33q133 22 197 56t99 91q34 57 34 125z" />
    <glyph glyph-name="questiondown" unicode="&#xbf;" horiz-adv-x="833" 
d="M731 819q0 -41 -28 -69q-29 -28 -69 -27q-40 0 -68 28q-28 29 -28 69t28 68t69 28t69 -28t27 -69zM113 -381q0 -186 194 -186q90 0 130 51t40 149q0 76 84 76q33 1 52 -25t20 -53q0 -83 -94 -155t-245 -72t-238 81t-87 208q0 197 162 319l158 117q34 23 53 39
q18 16 41 34q89 71 123 189l35 131h26l-28 -110q-29 -123 -86 -187l-160 -184q-180 -207 -180 -422z" />
    <glyph glyph-name="Agrave" unicode="&#xc0;" horiz-adv-x="1478" 
d="M801 1862q0 67 73 67q37 0 72 -55l203 -293h-31l-272 215q-45 35 -45 66zM918 631l-9 622h-4l-438 -622h451zM-180 0l8 29h176l1028 1462h47l37 -1462h221l-8 -29h-631l9 29h223l-12 573h-472l-401 -573h207l-8 -29h-424z" />
    <glyph glyph-name="Aacute" unicode="&#xc1;" horiz-adv-x="1478" 
d="M1344 1929q68 0 69 -59q0 -25 -17 -44t-71 -52l-328 -193h-28l282 285q59 63 93 63zM918 631l-9 622h-4l-438 -622h451zM-180 0l8 29h176l1028 1462h47l37 -1462h221l-8 -29h-631l9 29h223l-12 573h-472l-401 -573h207l-8 -29h-424z" />
    <glyph glyph-name="Acircumflex" unicode="&#xc2;" horiz-adv-x="1478" 
d="M758 1581l329 344h76l180 -344h-28l-207 217l-317 -217h-33zM918 631l-9 622h-4l-438 -622h451zM-180 0l8 29h176l1028 1462h47l37 -1462h221l-8 -29h-631l9 29h223l-12 573h-472l-401 -573h207l-8 -29h-424z" />
    <glyph glyph-name="Atilde" unicode="&#xc3;" horiz-adv-x="1478" 
d="M981 1833q41 0 111 -35l79 -43q57 -23 95 -23t74 36q36 34 51 71h26q-20 -99 -92 -165q-47 -44 -111 -44t-124 33l-54 29q-70 39 -110 39t-76 -33q-35 -33 -45 -68h-29q14 88 74 146t131 57zM918 631l-9 622h-4l-438 -622h451zM-180 0l8 29h176l1028 1462h47l37 -1462
h221l-8 -29h-631l9 29h223l-12 573h-472l-401 -573h207l-8 -29h-424z" />
    <glyph glyph-name="Adieresis" unicode="&#xc4;" horiz-adv-x="1478" 
d="M1192 1772q0 40 29 68t67 28t68 -29q28 -29 28 -67t-28 -68q-28 -29 -68 -29t-68 29t-28 68zM815 1772q0 40 29 68q30 28 68 28t67 -29t29 -67t-29 -68q-29 -29 -68 -29t-67 29t-29 68zM918 631l-9 622h-4l-438 -622h451zM-180 0l8 29h176l1028 1462h47l37 -1462h221
l-8 -29h-631l9 29h223l-12 573h-472l-401 -573h207l-8 -29h-424z" />
    <glyph glyph-name="Aring" unicode="&#xc5;" horiz-adv-x="1478" 
d="M1243 1822q0 85 -72 85q-55 0 -100 -78t-45 -150q0 -102 68 -102q57 0 103 80t46 165zM1313 1778q0 -74 -71 -149t-142 -75t-108 44q-36 44 -36 114t74 144t142 73q68 0 104 -39q37 -38 37 -112zM918 631l-9 622h-4l-438 -622h451zM-180 0l8 29h176l1028 1462h47
l37 -1462h221l-8 -29h-631l9 29h223l-12 573h-472l-401 -573h207l-8 -29h-424z" />
    <glyph glyph-name="AE" unicode="&#xc6;" horiz-adv-x="2009" 
d="M975 631l133 801h-6l-619 -801h492zM1808 1285q0 145 -170 145h-352l-108 -633h149q162 0 260 225h29l-160 -537h-29q6 80 7 107q0 72 -40 124t-134 52h-86l-123 -739h270q106 0 192 63t130 124q44 60 94 140l24 45h29l-143 -401h-1004l8 29h221l95 573h-504l-445 -573
h211l-8 -29h-442l8 29h190l1084 1401h-213l8 28h1081l-118 -334h-29q18 92 18 161z" />
    <glyph glyph-name="Ccedilla" unicode="&#xc7;" horiz-adv-x="1327" 
d="M1280 1202q0 125 -87 190q-87 64 -231 64t-281 -130q-232 -221 -356 -684q-51 -184 -51 -330t90 -229t257 -83q281 0 446 315l27 -14q-180 -330 -478 -330h-26l-139 -131l4 -4q53 31 110 31t101 -37t45 -123q0 -86 -71 -148q-71 -63 -167 -63t-156 60l19 24
q70 -55 134 -55q64 -1 94 67q32 68 32 151t-76 83q-53 0 -90 -27l-24 33l149 141q-221 19 -329 183t-107 399q0 178 83 353q158 334 484 500q152 77 270 77t226 -40q106 -40 137 -40q57 0 86 59l31 -6l-142 -395h-26q12 80 12 139z" />
    <glyph glyph-name="Egrave" unicode="&#xc8;" horiz-adv-x="1402" 
d="M764 1862q0 67 74 67q38 0 71 -55l203 -293h-31l-272 215q-45 35 -45 66zM1321 1262q0 78 -36 123q-36 44 -128 45h-432l-227 -633h192q135 0 235 156q27 44 41 73q15 29 17 31h29l-215 -596h-29q27 73 27 149t-45 117t-123 41h-140l-264 -739h479q64 -1 126 33t104 71
q41 37 89 106t61 91t42 71h29l-143 -401h-1192l8 29h213l502 1401h-238l8 28h1139l-125 -348h-29q25 74 25 152z" />
    <glyph glyph-name="Eacute" unicode="&#xc9;" horiz-adv-x="1402" 
d="M1308 1929q68 0 68 -59q0 -25 -17 -44t-71 -52l-327 -193h-29l282 285q60 63 94 63zM1321 1262q0 78 -36 123q-36 44 -128 45h-432l-227 -633h192q135 0 235 156q27 44 41 73q15 29 17 31h29l-215 -596h-29q27 73 27 149t-45 117t-123 41h-140l-264 -739h479
q64 -1 126 33t104 71q41 37 89 106t61 91t42 71h29l-143 -401h-1192l8 29h213l502 1401h-238l8 28h1139l-125 -348h-29q25 74 25 152z" />
    <glyph glyph-name="Ecircumflex" unicode="&#xca;" horiz-adv-x="1402" 
d="M680 1581l330 344h75l181 -344h-29l-207 217l-317 -217h-33zM1321 1262q0 78 -36 123q-36 44 -128 45h-432l-227 -633h192q135 0 235 156q27 44 41 73q15 29 17 31h29l-215 -596h-29q27 73 27 149t-45 117t-123 41h-140l-264 -739h479q64 -1 126 33t104 71q41 37 89 106
t61 91t42 71h29l-143 -401h-1192l8 29h213l502 1401h-238l8 28h1139l-125 -348h-29q25 74 25 152z" />
    <glyph glyph-name="Edieresis" unicode="&#xcb;" horiz-adv-x="1402" 
d="M1104 1772q0 40 28 68t68 28t69 -29q27 -29 27 -67t-28 -68q-28 -29 -68 -29t-68 29t-28 68zM727 1772q0 40 28 68q29 28 69 28t68 -29t28 -67t-28 -68q-28 -29 -69 -29t-69 29t-27 68zM1321 1262q0 78 -36 123q-36 44 -128 45h-432l-227 -633h192q135 0 235 156
q27 44 41 73q15 29 17 31h29l-215 -596h-29q27 73 27 149t-45 117t-123 41h-140l-264 -739h479q64 -1 126 33t104 71q41 37 89 106t61 91t42 71h29l-143 -401h-1192l8 29h213l502 1401h-238l8 28h1139l-125 -348h-29q25 74 25 152z" />
    <glyph glyph-name="Igrave" unicode="&#xcc;" horiz-adv-x="796" 
d="M461 1862q0 67 73 67q37 0 72 -55l203 -293h-31l-272 215q-45 35 -45 66zM-170 0l8 29h211l504 1401h-236l9 28h635l-9 -28h-215l-501 -1401h233l-8 -29h-631z" />
    <glyph glyph-name="Iacute" unicode="&#xcd;" horiz-adv-x="796" 
d="M1004 1929q68 0 69 -59q0 -25 -17 -44t-71 -52l-328 -193h-28l282 285q59 63 93 63zM-170 0l8 29h211l504 1401h-236l9 28h635l-9 -28h-215l-501 -1401h233l-8 -29h-631z" />
    <glyph glyph-name="Icircumflex" unicode="&#xce;" horiz-adv-x="796" 
d="M408 1581l329 344h76l180 -344h-28l-207 217l-318 -217h-32zM-170 0l8 29h211l504 1401h-236l9 28h635l-9 -28h-215l-501 -1401h233l-8 -29h-631z" />
    <glyph glyph-name="Idieresis" unicode="&#xcf;" horiz-adv-x="796" 
d="M852 1772q0 40 29 68t67 28t68 -29q28 -29 28 -67t-28 -68q-28 -29 -68 -29t-68 29t-28 68zM475 1772q0 40 29 68q30 28 68 28t67 -29t29 -67t-29 -68q-29 -29 -68 -29t-67 29t-29 68zM-170 0l8 29h211l504 1401h-236l9 28h635l-9 -28h-215l-501 -1401h233l-8 -29h-631z
" />
    <glyph glyph-name="Eth" unicode="&#xd0;" horiz-adv-x="1630" 
d="M1331 1071q0 111 -46 192t-116 117q-98 49 -256 50h-176l-225 -633h303l-10 -29h-303l-264 -737l245 -11q109 0 193 24t184 87q217 137 344 399t127 541zM944 1458q276 0 418 -159t141 -398q1 -164 -73 -327q-74 -164 -200 -292t-312 -209t-396 -81l-346 8h-346l8 29h211
l266 739h-235l10 29h236l227 633h-236l9 28h618z" />
    <glyph glyph-name="Ntilde" unicode="&#xd1;" horiz-adv-x="1441" 
d="M963 1833q41 0 110 -35l80 -43q57 -23 95 -23t74 36q36 34 50 71h27q-20 -98 -80 -153q-59 -56 -124 -56t-124 33l-53 29q-70 39 -111 39t-76 -33t-45 -68h-28q14 88 73 146t132 57zM887 -29l-352 1385h-5l-473 -1327h234l-8 -29h-476l9 29h211l499 1401h-233l8 28h387
l291 -1155h4l401 1127h-235l8 28h479l-8 -28h-211l-516 -1459h-14z" />
    <glyph glyph-name="Ograve" unicode="&#xd2;" horiz-adv-x="1593" 
d="M858 1862q0 67 74 67q37 0 72 -55l202 -293h-30l-273 215q-45 35 -45 66zM279 324q0 -324 323 -324q137 0 258 86t202 217t139 287q112 301 112 530q0 336 -318 336q-131 0 -250 -83t-201 -213q-170 -269 -236 -581q-29 -144 -29 -255zM123 559q0 172 80 343
q158 339 487 504q158 79 297 79t235 -53q96 -52 150 -142q105 -177 105 -397q0 -219 -125 -433t-333 -351t-424 -137t-344 154t-128 433z" />
    <glyph glyph-name="Oacute" unicode="&#xd3;" horiz-adv-x="1593" 
d="M1402 1929q68 0 68 -59q0 -25 -17 -44t-71 -52l-327 -193h-29l283 285q59 63 93 63zM279 324q0 -324 323 -324q137 0 258 86t202 217t139 287q112 301 112 530q0 336 -318 336q-131 0 -250 -83t-201 -213q-170 -269 -236 -581q-29 -144 -29 -255zM123 559q0 172 80 343
q158 339 487 504q158 79 297 79t235 -53q96 -52 150 -142q105 -177 105 -397q0 -219 -125 -433t-333 -351t-424 -137t-344 154t-128 433z" />
    <glyph glyph-name="Ocircumflex" unicode="&#xd4;" horiz-adv-x="1593" 
d="M805 1581l330 344h75l181 -344h-29l-207 217l-317 -217h-33zM279 324q0 -324 323 -324q137 0 258 86t202 217t139 287q112 301 112 530q0 336 -318 336q-131 0 -250 -83t-201 -213q-170 -269 -236 -581q-29 -144 -29 -255zM123 559q0 172 80 343q158 339 487 504
q158 79 297 79t235 -53q96 -52 150 -142q105 -177 105 -397q0 -219 -125 -433t-333 -351t-424 -137t-344 154t-128 433z" />
    <glyph glyph-name="Otilde" unicode="&#xd5;" horiz-adv-x="1593" 
d="M1038 1833q41 0 111 -35l80 -43q57 -23 95 -23t74 36q36 34 50 71h27q-20 -98 -93 -165q-48 -44 -112 -44t-123 33l-53 29q-70 39 -111 39t-76 -33t-45 -68h-28q14 88 73 146t131 57zM279 324q0 -324 323 -324q137 0 258 86t202 217t139 287q112 301 112 530
q0 336 -318 336q-131 0 -250 -83t-201 -213q-170 -269 -236 -581q-29 -144 -29 -255zM123 559q0 172 80 343q158 339 487 504q158 79 297 79t235 -53q96 -52 150 -142q105 -177 105 -397q0 -219 -125 -433t-333 -351t-424 -137t-344 154t-128 433z" />
    <glyph glyph-name="Odieresis" unicode="&#xd6;" horiz-adv-x="1593" 
d="M1249 1772q0 40 29 68t68 28q40 0 68 -29t28 -67t-29 -68q-29 -29 -67 -29t-68 29q-29 29 -29 68zM872 1772q0 40 29 68t68 28t67 -29t29 -67q0 -38 -29 -68q-30 -29 -68 -29t-67 29t-29 68zM279 324q0 -324 323 -324q137 0 258 86t202 217t139 287q112 301 112 530
q0 336 -318 336q-131 0 -250 -83t-201 -213q-170 -269 -236 -581q-29 -144 -29 -255zM123 559q0 172 80 343q158 339 487 504q158 79 297 79t235 -53q96 -52 150 -142q105 -177 105 -397q0 -219 -125 -433t-333 -351t-424 -137t-344 154t-128 433z" />
    <glyph glyph-name="multiply" unicode="&#xd7;" horiz-adv-x="1214" 
d="M944 39l-426 426l-426 -426l-26 29l423 424l-423 423l26 29l426 -426l426 426l27 -29l-424 -423l424 -424z" />
    <glyph glyph-name="Oslash" unicode="&#xd8;" horiz-adv-x="1593" 
d="M999 1485q98 0 185 -35l84 145l28 -16l-82 -143q133 -70 198 -221t65 -346t-125 -409t-333 -351t-429 -138q-113 0 -199 43l-92 -157l-29 16l92 158q-240 141 -239 528q0 172 80 343q158 339 487 504q158 79 309 79zM610 0q130 0 250 86q121 86 202 217t139 287
q112 301 112 517t-117 296l-788 -1358q72 -45 202 -45zM978 1456q-114 0 -233 -83t-201 -213t-144 -284q-123 -306 -121 -552q0 -185 102 -263l784 1358q-73 37 -187 37z" />
    <glyph glyph-name="Ugrave" unicode="&#xd9;" horiz-adv-x="1517" 
d="M821 1862q0 67 74 67q37 0 72 -55l202 -293h-30l-273 215q-45 35 -45 66zM334 262q0 -114 72 -188t198 -74q391 0 547 494l291 936h-234l9 28h479l-8 -28h-213l-301 -963q-80 -254 -222 -375t-359 -121q-217 -1 -319 105t-102 238t84 362l270 754h-233l8 28h633l-8 -28
h-215l-314 -875q-63 -178 -63 -293z" />
    <glyph glyph-name="Uacute" unicode="&#xda;" horiz-adv-x="1517" 
d="M1365 1929q67 0 69 -59q0 -25 -18 -44t-70 -52l-328 -193h-29l283 285q59 63 93 63zM334 262q0 -114 72 -188t198 -74q391 0 547 494l291 936h-234l9 28h479l-8 -28h-213l-301 -963q-80 -254 -222 -375t-359 -121q-217 -1 -319 105t-102 238t84 362l270 754h-233l8 28
h633l-8 -28h-215l-314 -875q-63 -178 -63 -293z" />
    <glyph glyph-name="Ucircumflex" unicode="&#xdb;" horiz-adv-x="1517" 
d="M778 1581l330 344h76l180 -344h-29l-207 217l-317 -217h-33zM334 262q0 -114 72 -188t198 -74q391 0 547 494l291 936h-234l9 28h479l-8 -28h-213l-301 -963q-80 -254 -222 -375t-359 -121q-217 -1 -319 105t-102 238t84 362l270 754h-233l8 28h633l-8 -28h-215
l-314 -875q-63 -178 -63 -293z" />
    <glyph glyph-name="Udieresis" unicode="&#xdc;" horiz-adv-x="1517" 
d="M1212 1772q0 40 29 68t68 28t67 -29t29 -67q0 -38 -29 -68q-30 -29 -68 -29t-67 29t-29 68zM836 1772q0 40 28 68t68 28t68 -29t28 -67t-29 -68q-29 -29 -67 -29t-68 29q-28 29 -28 68zM334 262q0 -114 72 -188t198 -74q391 0 547 494l291 936h-234l9 28h479l-8 -28h-213
l-301 -963q-80 -254 -222 -375t-359 -121q-217 -1 -319 105t-102 238t84 362l270 754h-233l8 28h633l-8 -28h-215l-314 -875q-63 -178 -63 -293z" />
    <glyph glyph-name="Yacute" unicode="&#xdd;" horiz-adv-x="1327" 
d="M1269 1929q68 0 68 -59q0 -25 -17 -44t-71 -52l-327 -193h-29l283 285q59 63 93 63zM115 29h229l225 633l-145 768h-223l8 28h631l-9 -28h-227l133 -703l625 703h-201l8 28h402l-8 -28h-160l-651 -736l-240 -665h236l-9 -29h-633z" />
    <glyph glyph-name="Thorn" unicode="&#xde;" horiz-adv-x="1290" 
d="M717 1210q229 0 360 -108t131 -259q0 -152 -108 -264t-257 -162q-148 -50 -276 -50t-215 16l-127 -354h234l-8 -29h-631l8 29h211l504 1401h-236l8 28h635l-8 -28h-215l-78 -220h68zM1020 913q0 133 -80 201t-223 68h-80l-275 -770q98 -16 166 -17q211 0 352 158
q140 158 140 360z" />
    <glyph glyph-name="germandbls" unicode="&#xdf;" horiz-adv-x="1138" 
d="M618 -27q-124 -1 -192 57t-68 106t33 72t72 23q66 0 65 -47q0 -20 -17 -45t-17 -49q0 -88 131 -88q86 0 147 52t62 134q0 46 -14 80t-19 48q-6 15 -21 42q-15 28 -20 41l-76 152q-68 131 -68 192t42 113t141 102l108 58q195 102 195 307q0 92 -55 148q-55 57 -160 57
t-219 -122t-181 -339l-307 -1010q-78 -253 -245 -417t-304 -164q-73 0 -121 39t-49 98q0 90 86 90q70 0 70 -49q0 -16 -10 -45t-10 -49q0 -55 57 -56q98 0 204 140t173 370l284 965q170 578 584 577q98 0 165 -59t66 -176q0 -207 -169 -311l-97 -60q-113 -70 -112 -151
q0 -57 49 -156l106 -215q53 -111 54 -170q0 -123 -110 -204t-233 -81z" />
    <glyph glyph-name="agrave" unicode="&#xe0;" horiz-adv-x="1099" 
d="M428 1412q0 65 70 67q41 0 75 -56l203 -293h-31l-272 216q-45 36 -45 66zM766 756q0 42 -28 82q-28 39 -91 39q-96 0 -193 -81t-164 -197t-109 -239t-42 -210q-1 -148 107 -148t226 116t146 191l109 301q39 104 39 146zM698 73q0 -59 50 -59t97 42q46 42 63 73t32 64
l27 -15q-96 -205 -260 -205q-135 0 -136 125q0 53 23 115h-4q-51 -66 -92 -108t-120 -87t-166 -45t-152 68q-64 68 -64 191q0 124 71 248q131 229 380 366q109 59 181 59t114 -36t42 -91h4l35 101h144l-224 -621q-45 -127 -45 -185z" />
    <glyph glyph-name="aacute" unicode="&#xe1;" horiz-adv-x="1099" 
d="M1040 1420q0 -26 -17 -45t-71 -52l-327 -193h-29l283 285q92 97 144 47q17 -16 17 -42zM766 756q0 42 -28 82q-28 39 -91 39q-96 0 -193 -81t-164 -197t-109 -239t-42 -210q-1 -148 107 -148t226 116t146 191l109 301q39 104 39 146zM698 73q0 -59 50 -59t97 42
q46 42 63 73t32 64l27 -15q-96 -205 -260 -205q-135 0 -136 125q0 53 23 115h-4q-51 -66 -92 -108t-120 -87t-166 -45t-152 68q-64 68 -64 191q0 124 71 248q131 229 380 366q109 59 181 59t114 -36t42 -91h4l35 101h144l-224 -621q-45 -127 -45 -185z" />
    <glyph glyph-name="acircumflex" unicode="&#xe2;" horiz-adv-x="1099" 
d="M385 1130l330 345h76l180 -345h-29l-207 218l-317 -218h-33zM766 756q0 42 -28 82q-28 39 -91 39q-96 0 -193 -81t-164 -197t-109 -239t-42 -210q-1 -148 107 -148t226 116t146 191l109 301q39 104 39 146zM698 73q0 -59 50 -59t97 42q46 42 63 73t32 64l27 -15
q-96 -205 -260 -205q-135 0 -136 125q0 53 23 115h-4q-51 -66 -92 -108t-120 -87t-166 -45t-152 68q-64 68 -64 191q0 124 71 248q131 229 380 366q109 59 181 59t114 -36t42 -91h4l35 101h144l-224 -621q-45 -127 -45 -185z" />
    <glyph glyph-name="atilde" unicode="&#xe3;" horiz-adv-x="1099" 
d="M608 1382q41 0 111 -34l80 -43q57 -23 95 -23t74 35t50 72h26q-20 -99 -92 -165q-48 -44 -112 -44t-123 32l-53 29q-70 39 -111 39t-76 -32t-45 -68h-29q13 88 73 145t132 57zM766 756q0 42 -28 82q-28 39 -91 39q-96 0 -193 -81t-164 -197t-109 -239t-42 -210
q-1 -148 107 -148t226 116t146 191l109 301q39 104 39 146zM698 73q0 -59 50 -59t97 42q46 42 63 73t32 64l27 -15q-96 -205 -260 -205q-135 0 -136 125q0 53 23 115h-4q-51 -66 -92 -108t-120 -87t-166 -45t-152 68q-64 68 -64 191q0 124 71 248q131 229 380 366
q109 59 181 59t114 -36t42 -91h4l35 101h144l-224 -621q-45 -127 -45 -185z" />
    <glyph glyph-name="adieresis" unicode="&#xe4;" horiz-adv-x="1099" 
d="M819 1362q0 39 29 68q30 28 68 28t67 -28t29 -68q0 -39 -29 -68q-29 -28 -68 -28t-67 28t-29 68zM442 1362q0 39 29 68q29 28 68 28t67 -28t29 -68q0 -39 -29 -68q-30 -28 -68 -28t-67 28t-29 68zM766 756q0 42 -28 82q-28 39 -91 39q-96 0 -193 -81t-164 -197t-109 -239
t-42 -210q-1 -148 107 -148t226 116t146 191l109 301q39 104 39 146zM698 73q0 -59 50 -59t97 42q46 42 63 73t32 64l27 -15q-96 -205 -260 -205q-135 0 -136 125q0 53 23 115h-4q-51 -66 -92 -108t-120 -87t-166 -45t-152 68q-64 68 -64 191q0 124 71 248q131 229 380 366
q109 59 181 59t114 -36t42 -91h4l35 101h144l-224 -621q-45 -127 -45 -185z" />
    <glyph glyph-name="aring" unicode="&#xe5;" horiz-adv-x="1099" 
d="M870 1412q0 85 -71 85q-55 0 -101 -78t-45 -149q0 -102 68 -103q57 0 103 80t46 165zM798 1520q68 0 105 -40t37 -112q0 -74 -71 -148t-142 -75q-71 0 -107 44q-36 43 -36 113t73 144t141 74zM766 756q0 42 -28 82q-28 39 -91 39q-96 0 -193 -81t-164 -197t-109 -239
t-42 -210q-1 -148 107 -148t226 116t146 191l109 301q39 104 39 146zM698 73q0 -59 50 -59t97 42q46 42 63 73t32 64l27 -15q-96 -205 -260 -205q-135 0 -136 125q0 53 23 115h-4q-51 -66 -92 -108t-120 -87t-166 -45t-152 68q-64 68 -64 191q0 124 71 248q131 229 380 366
q109 59 181 59t114 -36t42 -91h4l35 101h144l-224 -621q-45 -127 -45 -185z" />
    <glyph glyph-name="ae" unicode="&#xe6;" horiz-adv-x="1517" 
d="M772 756q0 42 -28 82q-28 39 -91 39q-96 0 -193 -81t-164 -197t-109 -239t-42 -210q-1 -148 107 -148t227 116t146 191l108 301q39 104 39 146zM1315 778q0 43 -27 71t-80 28q-119 0 -218 -115t-144 -246q70 -8 104 -8q145 0 255 80t110 190zM240 -27q-110 0 -174 68
t-64 191q0 124 71 248q131 230 381 366q110 59 181 59t113 -36t43 -91h4l34 101h144l-49 -134l6 -4q41 47 71 75q31 28 95 58t139 31q75 0 141 -40q66 -39 66 -115t-62 -134q-98 -92 -307 -124q-137 -24 -237 -5q-106 -319 2 -429q56 -56 134 -56q125 0 204 73q48 44 80 88
q31 45 38 52l25 -14q-2 -2 -16 -25t-48 -63t-87 -77q-87 -60 -221 -62t-222 90t-94 192h-4q-66 -102 -172 -192t-215 -91z" />
    <glyph glyph-name="ccedilla" unicode="&#xe7;" horiz-adv-x="833" 
d="M20 290q0 130 82 274t220 242t284 99q80 0 135 -38t56 -126q0 -109 -105 -108q-66 0 -65 51q0 33 27 68q28 35 28 67q0 57 -88 58q-123 0 -225 -119q-101 -119 -153 -270t-52 -259q0 -107 53 -167t153 -60t178 66q79 66 128 149l29 -16q-43 -63 -82 -105t-115 -83
q-76 -40 -164 -40l-139 -133l4 -4q53 31 110 31t101 -37t45 -123q0 -86 -71 -148q-71 -63 -167 -63t-155 60l18 24q70 -55 134 -55q64 -1 94 67q32 68 32 151t-76 83q-53 0 -90 -27l-24 33l147 141q-133 11 -210 99t-77 218z" />
    <glyph glyph-name="egrave" unicode="&#xe8;" horiz-adv-x="872" 
d="M313 1412q1 30 19 48t55 18t72 -55l203 -293h-31l-273 216q-45 36 -45 66zM680 778q0 43 -27 71t-80 28q-119 0 -218 -115t-144 -246q70 -8 104 -8q145 0 255 80t110 190zM4 291q0 127 83 272t219 243t272 99q92 0 160 -40q68 -39 69 -115t-61 -134q-98 -92 -308 -124
q-137 -24 -237 -5q-106 -319 2 -429q55 -56 133 -56q125 0 205 73q48 44 80 88q31 45 38 52l25 -14q-2 -2 -16 -25t-48 -63q-115 -136 -296 -140q-160 -1 -240 95t-80 223z" />
    <glyph glyph-name="eacute" unicode="&#xe9;" horiz-adv-x="872" 
d="M481 1130l283 285q92 99 144 47q18 -16 18 -42t-18 -45t-70 -52l-328 -193h-29zM680 778q0 43 -27 71t-80 28q-119 0 -218 -115t-144 -246q70 -8 104 -8q145 0 255 80t110 190zM4 291q0 127 83 272t219 243t272 99q92 0 160 -40q68 -39 69 -115t-61 -134
q-98 -92 -308 -124q-137 -24 -237 -5q-106 -319 2 -429q55 -56 133 -56q125 0 205 73q48 44 80 88q31 45 38 52l25 -14q-2 -2 -16 -25t-48 -63q-115 -136 -296 -140q-160 -1 -240 95t-80 223z" />
    <glyph glyph-name="ecircumflex" unicode="&#xea;" horiz-adv-x="872" 
d="M270 1130l330 345h76l180 -345h-29l-206 218l-318 -218h-33zM680 778q0 43 -27 71t-80 28q-119 0 -218 -115t-144 -246q70 -8 104 -8q145 0 255 80t110 190zM4 291q0 127 83 272t219 243t272 99q92 0 160 -40q68 -39 69 -115t-61 -134q-98 -92 -308 -124
q-137 -24 -237 -5q-106 -319 2 -429q55 -56 133 -56q125 0 205 73q48 44 80 88q31 45 38 52l25 -14q-2 -2 -16 -25t-48 -63q-115 -136 -296 -140q-160 -1 -240 95t-80 223z" />
    <glyph glyph-name="edieresis" unicode="&#xeb;" horiz-adv-x="872" 
d="M705 1362q0 39 28 68q29 28 68 28t67 -28t29 -68q0 -39 -29 -68q-30 -28 -68 -28t-67 28q-28 29 -28 68zM328 1362q0 39 28 68q29 28 68 28t68 -28q28 -28 28 -68q0 -39 -28 -68q-28 -28 -68 -28q-39 0 -68 28q-28 29 -28 68zM680 778q0 43 -27 71t-80 28
q-119 0 -218 -115t-144 -246q70 -8 104 -8q145 0 255 80t110 190zM4 291q0 127 83 272t219 243t272 99q92 0 160 -40q68 -39 69 -115t-61 -134q-98 -92 -308 -124q-137 -24 -237 -5q-106 -319 2 -429q55 -56 133 -56q125 0 205 73q48 44 80 88q31 45 38 52l25 -14
q-2 -2 -16 -25t-48 -63q-115 -136 -296 -140q-160 -1 -240 95t-80 223z" />
    <glyph glyph-name="igrave" unicode="&#xec;" 
d="M162 1412q0 30 18 48t55 18t72 -55l203 -293h-31l-272 216q-45 36 -45 66zM214 2q58 0 114 65q55 65 80 119l24 -10q0 -8 -12 -26q-12 -19 -22 -36q-35 -63 -94 -102q-60 -39 -128 -39q-147 0 -147 123q0 52 37 154l210 600h-182l8 29h326l-242 -695q-31 -88 -30 -123
q0 -59 58 -59z" />
    <glyph glyph-name="iacute" unicode="&#xed;" 
d="M774 1420q0 -26 -17 -45t-71 -52l-328 -193h-28l282 285q60 63 94 63t51 -16t17 -42zM214 2q58 0 114 65q55 65 80 119l24 -10q0 -8 -12 -26q-12 -19 -22 -36q-35 -63 -94 -102q-60 -39 -128 -39q-147 0 -147 123q0 52 37 154l210 600h-182l8 29h326l-242 -695
q-31 -88 -30 -123q0 -59 58 -59z" />
    <glyph glyph-name="icircumflex" unicode="&#xee;" 
d="M119 1130l330 345h75l181 -345h-29l-207 218l-317 -218h-33zM214 2q58 0 114 65q55 65 80 119l24 -10q0 -8 -12 -26q-12 -19 -22 -36q-35 -63 -94 -102q-60 -39 -128 -39q-147 0 -147 123q0 52 37 154l210 600h-182l8 29h326l-242 -695q-31 -88 -30 -123q0 -59 58 -59z
" />
    <glyph glyph-name="idieresis" unicode="&#xef;" 
d="M553 1362q0 39 29 68q30 28 68 28t67 -28t29 -68q0 -39 -30 -68q-28 -28 -67 -28t-67 28t-29 68zM176 1362q0 39 29 68q29 28 67 28t68 -28q29 -28 29 -68q0 -39 -29 -68q-29 -28 -68 -28q-40 0 -68 28t-28 68zM214 2q58 0 114 65q55 65 80 119l24 -10q0 -8 -12 -26
q-12 -19 -22 -36q-35 -63 -94 -102q-60 -39 -128 -39q-147 0 -147 123q0 52 37 154l210 600h-182l8 29h326l-242 -695q-31 -88 -30 -123q0 -59 58 -59z" />
    <glyph glyph-name="eth" unicode="&#xf0;" horiz-adv-x="985" 
d="M530 877q-114 0 -208 -125q-94 -124 -140 -276t-47 -260q0 -108 48 -162q48 -52 134 -52t167 79q135 132 207 407q28 108 28 176q0 213 -189 213zM0 322q0 236 175 410t366 173q65 1 111 -29t65 -71l4 4q-18 240 -131 426l-275 -74l-8 27l271 72q-80 150 -189 243l23 23
q121 -84 237 -248l264 72l9 -27l-258 -70q199 -276 198 -604q0 -162 -54 -296t-137 -214q-172 -166 -352 -166q-141 -1 -230 103t-89 246z" />
    <glyph glyph-name="ntilde" unicode="&#xf1;" horiz-adv-x="1099" 
d="M608 1382q41 0 111 -34l80 -43q57 -23 95 -23t74 35t50 72h26q-20 -99 -92 -165q-48 -44 -112 -44t-123 32l-53 29q-70 39 -111 39t-76 -32t-45 -68h-29q13 88 73 145t132 57zM729 891q84 0 135 -45q51 -46 51 -102t-38 -162l-134 -379q-33 -90 -32 -135q0 -66 53 -66
q111 0 197 184l22 -10q-2 -2 -11 -22q-19 -42 -76 -111q-57 -68 -146 -69t-132 30t-43 84t25 127l172 490q16 47 16 79t-19 56q-19 23 -60 22q-97 0 -227 -129t-193 -305l-154 -428h-143l297 850h-187l9 29h323l-84 -252h4q199 264 375 264z" />
    <glyph glyph-name="ograve" unicode="&#xf2;" horiz-adv-x="985" 
d="M371 1412q0 30 18 48t55 18t72 -55l203 -293h-31l-272 216q-45 36 -45 66zM530 877q-114 0 -208 -125q-94 -124 -140 -276t-47 -260q0 -108 48 -162q48 -52 134 -52t167 79q135 132 207 407q28 108 28 176q0 213 -189 213zM0 322q0 236 175 410t366 173q149 -1 231 -109
t82 -239q0 -225 -176 -404t-359 -180q-141 0 -230 104t-89 245z" />
    <glyph glyph-name="oacute" unicode="&#xf3;" horiz-adv-x="985" 
d="M983 1420q0 -26 -17 -45t-71 -52l-328 -193h-28l282 285q59 63 93 63t52 -16q17 -16 17 -42zM530 877q-114 0 -208 -125q-94 -124 -140 -276t-47 -260q0 -108 48 -162q48 -52 134 -52t167 79q135 132 207 407q28 108 28 176q0 213 -189 213zM0 322q0 236 175 410t366 173
q149 -1 231 -109t82 -239q0 -225 -176 -404t-359 -180q-141 0 -230 104t-89 245z" />
    <glyph glyph-name="ocircumflex" unicode="&#xf4;" horiz-adv-x="985" 
d="M328 1130l329 345h76l180 -345h-28l-207 218l-318 -218h-32zM530 877q-114 0 -208 -125q-94 -124 -140 -276t-47 -260q0 -108 48 -162q48 -52 134 -52t167 79q135 132 207 407q28 108 28 176q0 213 -189 213zM0 322q0 236 175 410t366 173q149 -1 231 -109t82 -239
q0 -225 -176 -404t-359 -180q-141 0 -230 104t-89 245z" />
    <glyph glyph-name="otilde" unicode="&#xf5;" horiz-adv-x="985" 
d="M551 1382q41 0 111 -34l79 -43q57 -23 95 -23t74 35t51 72h26q-20 -99 -92 -165q-47 -44 -112 -44t-124 32l-53 29q-70 39 -110 39t-76 -32q-35 -32 -45 -68h-29q14 88 74 145t131 57zM530 877q-114 0 -208 -125q-94 -124 -140 -276t-47 -260q0 -108 48 -162
q48 -52 134 -52t167 79q135 132 207 407q28 108 28 176q0 213 -189 213zM0 322q0 236 175 410t366 173q149 -1 231 -109t82 -239q0 -225 -176 -404t-359 -180q-141 0 -230 104t-89 245z" />
    <glyph glyph-name="odieresis" unicode="&#xf6;" horiz-adv-x="985" 
d="M762 1362q0 39 29 68q29 28 67 28t68 -28q28 -28 28 -68q0 -39 -28 -68q-28 -28 -68 -28t-68 28t-28 68zM385 1362q0 39 29 68q30 28 68 28t67 -28t29 -68q0 -39 -29 -68q-29 -28 -68 -28t-67 28t-29 68zM530 877q-114 0 -208 -125q-94 -124 -140 -276t-47 -260
q0 -108 48 -162q48 -52 134 -52t167 79q135 132 207 407q28 108 28 176q0 213 -189 213zM0 322q0 236 175 410t366 173q149 -1 231 -109t82 -239q0 -225 -176 -404t-359 -180q-141 0 -230 104t-89 245z" />
    <glyph glyph-name="divide" unicode="&#xf7;" horiz-adv-x="1214" 
d="M518 903q39 1 68 -27q28 -28 28 -69t-28 -69t-68 -28t-68 28t-28 69t28 69t68 27zM518 80q-40 0 -68 28t-28 68t29 69q29 27 67 27t68 -28q28 -28 28 -68t-28 -68t-68 -28zM1010 473h-983v37h983v-37z" />
    <glyph glyph-name="oslash" unicode="&#xf8;" horiz-adv-x="985" 
d="M0 322q0 236 175 410t366 173q68 0 125 -28l79 137l25 -15l-80 -135q78 -43 121 -130t43 -177q0 -225 -176 -404t-359 -180q-78 0 -135 31l-82 -141l-24 14l82 141q-74 45 -117 127t-43 177zM326 2q76 0 158 79q135 132 207 407q28 108 28 196t-51 141l-463 -788
q45 -35 121 -35zM530 877q-114 0 -208 -125t-140 -277q-46 -151 -47 -259q0 -108 47 -159l465 789q-45 31 -117 31z" />
    <glyph glyph-name="ugrave" unicode="&#xf9;" horiz-adv-x="1062" 
d="M410 1412q0 30 18 48t55 18t72 -55l203 -293h-31l-272 216q-45 36 -45 66zM223 2q109 0 245 146t194 311l145 420h143l-241 -695q-31 -88 -31 -123q0 -59 58 -59t114 64t80 120l24 -10q0 -8 -12 -26q-12 -19 -21 -37t-32 -44q-81 -96 -191 -96q-147 0 -147 123
q0 53 33 140l-4 4q-197 -266 -361 -267q-88 0 -139 42t-51 120q0 31 39 148l200 567h-182l8 29h330l-236 -676q-33 -92 -32 -127q0 -74 67 -74z" />
    <glyph glyph-name="uacute" unicode="&#xfa;" horiz-adv-x="1062" 
d="M1022 1420q0 -26 -17 -45t-71 -52l-328 -193h-28l282 285q60 63 94 63t51 -16t17 -42zM223 2q109 0 245 146t194 311l145 420h143l-241 -695q-31 -88 -31 -123q0 -59 58 -59t114 64t80 120l24 -10q0 -8 -12 -26q-12 -19 -21 -37t-32 -44q-81 -96 -191 -96
q-147 0 -147 123q0 53 33 140l-4 4q-197 -266 -361 -267q-88 0 -139 42t-51 120q0 31 39 148l200 567h-182l8 29h330l-236 -676q-33 -92 -32 -127q0 -74 67 -74z" />
    <glyph glyph-name="ucircumflex" unicode="&#xfb;" horiz-adv-x="1062" 
d="M367 1130l329 345h76l180 -345h-28l-207 218l-318 -218h-32zM223 2q109 0 245 146t194 311l145 420h143l-241 -695q-31 -88 -31 -123q0 -59 58 -59t114 64t80 120l24 -10q0 -8 -12 -26q-12 -19 -21 -37t-32 -44q-81 -96 -191 -96q-147 0 -147 123q0 53 33 140l-4 4
q-197 -266 -361 -267q-88 0 -139 42t-51 120q0 31 39 148l200 567h-182l8 29h330l-236 -676q-33 -92 -32 -127q0 -74 67 -74z" />
    <glyph glyph-name="udieresis" unicode="&#xfc;" horiz-adv-x="1062" 
d="M801 1362q0 39 27 68q28 28 69 28t69 -28t28 -68q0 -39 -28 -68q-28 -28 -69 -28t-69 28q-27 29 -27 68zM424 1362q0 39 28 68q28 28 68 28t69 -28q27 -28 27 -68q0 -39 -28 -68q-28 -28 -68 -28t-68 28t-28 68zM223 2q109 0 245 146t194 311l145 420h143l-241 -695
q-31 -88 -31 -123q0 -59 58 -59t114 64t80 120l24 -10q0 -8 -12 -26q-12 -19 -21 -37t-32 -44q-81 -96 -191 -96q-147 0 -147 123q0 53 33 140l-4 4q-197 -266 -361 -267q-88 0 -139 42t-51 120q0 31 39 148l200 567h-182l8 29h330l-236 -676q-33 -92 -32 -127q0 -74 67 -74
z" />
    <glyph glyph-name="yacute" unicode="&#xfd;" horiz-adv-x="948" 
d="M520 1130l283 285q92 99 144 47q17 -16 17 -42t-16 -45q-18 -19 -71 -52l-328 -193h-29zM211 905q117 0 172 -106t55 -262t-45 -367h4l314 565q43 74 70 110q46 60 129 60t83 -80q1 -39 -25 -63t-65 -25q-39 0 -39 37q0 16 12 34t11 30q0 31 -29 26q-45 -2 -127 -149
l-373 -676l-118 -223q-86 -160 -166 -250t-168 -90t-136 39t-49 102q0 88 97 88q59 0 59 -51q0 -24 -10 -48t-10 -48q1 -51 73 -53q72 -1 155 121t140 326t58 413q0 512 -95 512q-106 0 -155 -242l-29 8q38 147 67 185q60 77 140 77z" />
    <glyph glyph-name="thorn" unicode="&#xfe;" horiz-adv-x="1099" 
d="M406 2q82 0 160 72t129 175q52 103 84 216t32 197q0 215 -160 215q-61 0 -123 -39t-84 -66q-63 -74 -75 -98l-162 -457q43 -215 199 -215zM655 905q145 0 223 -103q78 -102 76 -238q0 -136 -68 -266t-201 -227q-132 -97 -284 -98q-80 -1 -137 53t-71 142h-5l-251 -713
h174l-9 -28h-464l8 28h147l737 2073h-186l8 28h326l-291 -806h4q37 57 107 106t157 49z" />
    <glyph glyph-name="ydieresis" unicode="&#xff;" horiz-adv-x="948" 
d="M723 1362q0 39 28 68q29 28 69 28t68 -28t28 -68q0 -39 -28 -68q-28 -28 -69 -28t-69 28t-27 68zM346 1362q0 39 28 68q28 28 68 28t69 -28q28 -28 28 -68q0 -39 -28 -68q-28 -28 -69 -28q-40 0 -68 28t-28 68zM211 905q117 0 172 -106t55 -262t-45 -367h4l314 565
q43 74 70 110q46 60 129 60t83 -80q1 -39 -25 -63t-65 -25q-39 0 -39 37q0 16 12 34t11 30q0 31 -29 26q-45 -2 -127 -149l-373 -676l-118 -223q-86 -160 -166 -250t-168 -90t-136 39t-49 102q0 88 97 88q59 0 59 -51q0 -24 -10 -48t-10 -48q1 -51 73 -53q72 -1 155 121
t140 326t58 413q0 512 -95 512q-106 0 -155 -242l-29 8q38 147 67 185q60 77 140 77z" />
    <glyph glyph-name="dotlessi" unicode="&#x131;" 
d="M214 2q58 0 114 65q55 65 80 119l24 -10q0 -8 -12 -26q-12 -19 -22 -36q-35 -63 -94 -102q-60 -39 -128 -39q-147 0 -147 123q0 52 37 154l210 600h-182l8 29h326l-242 -695q-31 -88 -30 -123q0 -59 58 -59z" />
    <glyph glyph-name="Lslash" unicode="&#x141;" horiz-adv-x="1290" 
d="M705 29q213 0 421 372h29l-143 -401h-1192l8 29h213l235 655l-276 -129l14 41l277 127l252 707h-236l8 28h635l-8 -28h-215l-217 -605l401 187l-14 -41l-401 -187l-271 -755h480z" />
    <glyph glyph-name="lslash" unicode="&#x142;" 
d="M214 2q58 0 114 65q55 65 80 119l24 -10q0 -8 -12 -26q-12 -19 -22 -36q-35 -63 -94 -102q-60 -39 -128 -39q-147 0 -147 123q0 51 37 154l190 532l-221 -102l14 39l221 102l252 707h-182l8 28h326l-234 -657l219 100l-14 -38l-219 -101l-240 -676q-31 -88 -30 -123
q0 -59 58 -59z" />
    <glyph glyph-name="OE" unicode="&#x152;" horiz-adv-x="2123" 
d="M1073 1442q-215 0 -347 -106t-232 -300t-146 -368t-45 -293q0 -195 95 -277t268 -82q65 1 131 17l499 1384q-94 25 -223 25zM1397 29q157 0 266 131q108 131 160 235q2 4 4 6h28l-143 -401h-797q-71 0 -153 -6t-96 -6q-250 0 -388 154t-139 405q0 147 66 308
q147 360 458 525q169 90 353 90q130 0 196 -6t207 -6h731l-122 -348h-29q20 82 20 158q0 162 -153 162h-381l-230 -633h181q75 0 129 41t79 78t42 61t40 72h25l-203 -570h-26q18 66 18 127q0 162 -168 162h-125l-266 -739h416z" />
    <glyph glyph-name="oe" unicode="&#x153;" horiz-adv-x="1554" 
d="M1358 778q0 43 -27 71t-80 28q-119 0 -218 -115t-144 -246q70 -8 104 -8q145 0 255 80t110 190zM150 216q0 -108 48 -162q48 -52 134 -52t167 79q135 132 207 407q28 108 27 176q0 213 -188 213q-113 0 -208 -125q-95 -124 -141 -276t-46 -260zM14 322q0 236 175 410
t373 173q198 0 286 -225q207 225 407 225q92 0 161 -40q69 -39 69 -115q1 -76 -61 -134q-98 -92 -308 -124q-137 -24 -237 -5q-106 -319 2 -429q55 -56 133 -56q125 0 205 73q48 44 80 88q31 45 38 52l25 -14q-2 -2 -16 -25t-48 -63t-87 -77q-87 -60 -214 -62
q-127 0 -199 60t-96 128q-63 -72 -164 -130t-204 -59q-140 -1 -230 103t-90 246z" />
    <glyph glyph-name="Scaron" unicode="&#x160;" horiz-adv-x="1214" 
d="M670 1925h28l207 -217l318 217h34l-329 -344h-78zM45 283q0 -131 113 -207q112 -76 274 -76t264 95t102 237t-126 258l-146 133q-106 96 -158 182t-53 191q1 168 141 278t328 111q94 0 200 -37t149 -37q44 0 67 53l31 -6l-141 -391h-25q18 68 18 121q0 139 -84 204
q-84 64 -223 64t-232 -76t-93 -192q0 -80 42 -142t117 -131l183 -163q178 -160 178 -331t-152 -310t-416 -140q-109 0 -231 42t-159 42t-59 -19t-26 -46l-28 6l145 407h27q-27 -76 -27 -120z" />
    <glyph glyph-name="scaron" unicode="&#x161;" horiz-adv-x="720" 
d="M289 1475h28l207 -218l318 218h35l-330 -345h-78zM158 2q94 0 154 53t60 121t-57 143l-102 136q-31 39 -42 55q-40 58 -40 121q0 100 94 187t232 87q86 0 138 -38t52 -97q0 -86 -84 -86q-31 0 -51 17t-20 42t13 47t13 33q0 53 -69 54q-91 -1 -141 -51t-50 -113t78 -168
l121 -158q43 -53 43 -133q0 -127 -113 -204t-224 -77t-183 43t-72 117q0 45 29 70t62 25q64 -1 64 -46l-20 -92q0 -88 115 -88z" />
    <glyph glyph-name="Ydieresis" unicode="&#x178;" horiz-adv-x="1327" 
d="M1106 1772q0 40 29 68t67 28t68 -29q28 -29 28 -67t-28 -68q-28 -29 -68 -29t-68 29t-28 68zM729 1772q0 40 29 68q30 28 68 28t67 -29t29 -67t-29 -68q-29 -29 -68 -29t-67 29t-29 68zM115 29h229l225 633l-145 768h-223l8 28h631l-9 -28h-227l133 -703l625 703h-201
l8 28h402l-8 -28h-160l-651 -736l-240 -665h236l-9 -29h-633z" />
    <glyph glyph-name="Zcaron" unicode="&#x17d;" horiz-adv-x="1327" 
d="M649 1925h29l207 -217l317 217h35l-330 -344h-78zM698 1430q-219 0 -417 -371h-29l141 399h981l-1237 -1429h559q207 0 416 372h29l-146 -401h-1097l1237 1430h-437z" />
    <glyph glyph-name="zcaron" unicode="&#x17e;" horiz-adv-x="948" 
d="M281 1475h28l207 -218l318 218h34l-329 -345h-78zM723 47q16 16 16 42t-47 67q-8 6 -26 18t-24 35q-7 24 -7 49t25 42q26 17 57 17q92 1 92 -117t-70 -172t-180 -55q-49 0 -180 33l-98 25q-72 18 -158 18t-152 -76l-24 19l663 745q-344 13 -396 13t-67 -54l-10 -39l-28 7
q8 26 27 102t24 88q12 33 49 33l504 -17q29 0 53 29l20 -16l-634 -707q182 0 313 -65l100 -50q117 -55 158 -14z" />
    <glyph glyph-name="florin" unicode="&#x192;" horiz-adv-x="1138" 
d="M1094 1485q100 0 154 -45t55 -131q0 -121 -97 -121q-78 0 -78 65q0 27 30 69t30 73q0 61 -89 61t-163 -82t-158 -297l-143 -364h260l-8 -29h-264l-148 -401q-105 -292 -259 -554q-81 -137 -175 -221t-185 -84t-131 44q-40 43 -40 98q0 96 86 96q70 0 69 -57
q0 -31 -26 -58t-25 -51q0 -43 68 -43q147 0 262 314l334 917h-267l9 29h270l86 221q90 231 244 391t299 160z" />
    <glyph glyph-name="circumflex" unicode="&#x2c6;" 
d="M119 1130l330 345h75l181 -345h-29l-207 218l-317 -218h-33z" />
    <glyph glyph-name="caron" unicode="&#x2c7;" 
d="M213 1475h29l207 -218l317 218h35l-330 -345h-78z" />
    <glyph glyph-name="uni02C9" unicode="&#x2c9;" 
d="M190 1294h576l-25 -61h-575z" />
    <glyph glyph-name="breve" unicode="&#x2d8;" 
d="M154 1460h28q2 -80 60 -143t174 -64q201 0 291 207h28q-50 -182 -128 -258t-208 -76q-80 0 -133 36q-87 59 -105 201q-7 46 -7 97z" />
    <glyph glyph-name="dotaccent" unicode="&#x2d9;" 
d="M408 1362q0 39 27 68q28 28 69 28q40 0 68 -28t28 -68q0 -39 -28 -68q-28 -28 -68 -28t-69 28q-27 29 -27 68z" />
    <glyph glyph-name="ring" unicode="&#x2da;" 
d="M604 1412q0 85 -72 85q-55 0 -100 -78t-45 -149q0 -102 68 -103q57 0 103 80t46 165zM532 1520q68 0 105 -40t37 -112q0 -74 -71 -148t-142 -75q-71 0 -108 44q-36 43 -36 113t74 144q73 74 141 74z" />
    <glyph glyph-name="ogonek" unicode="&#x2db;" 
d="M-37 -272q0 104 180 198l138 74h45q-219 -156 -220 -250q0 -45 29 -75q63 -66 172 6l15 -25l-23 -16q-75 -48 -157 -49q-83 -1 -131 38t-48 99z" />
    <glyph glyph-name="tilde" unicode="&#x2dc;" 
d="M342 1382q41 0 111 -34l79 -43q58 -23 96 -23t74 35t50 72h26q-20 -99 -92 -165q-48 -44 -112 -44t-123 32l-54 29q-71 39 -111 39t-75 -32t-45 -68h-29q13 88 73 145t132 57z" />
    <glyph glyph-name="hungarumlaut" unicode="&#x2dd;" 
d="M522 1130l283 285q92 99 144 47q17 -16 17 -42t-16 -45q-18 -19 -71 -52l-328 -193h-29zM137 1130l283 285q92 99 144 47q18 -16 18 -42t-18 -45t-70 -52l-328 -193h-29z" />
    <glyph glyph-name="uni03A9" unicode="&#x3a9;" horiz-adv-x="1290" 
d="M111 96h196q-229 332 -153 692q61 294 246 472q186 178 408 178t328 -171t44 -464q-72 -336 -453 -707h197q59 0 89 27t81 131l41 -4l-95 -250h-405l-4 31q4 6 78 105q75 100 105 148t87 143q107 178 146 359q61 299 -18 450q-79 150 -241 150t-301 -151
q-139 -152 -202 -449t49 -631q10 -30 41 -124l-19 -31h-401l16 250l37 4q6 -98 28 -128t75 -30z" />
    <glyph glyph-name="uni03BC" unicode="&#x3bc;" horiz-adv-x="1062" 
d="M223 2q109 0 245 146t194 311l145 420h143l-241 -695q-31 -88 -31 -123q0 -59 58 -59t114 64t80 120l24 -10q0 -8 -12 -26q-12 -19 -21 -37t-32 -44q-81 -96 -191 -96q-147 0 -147 123q0 53 33 140l-4 4q-197 -266 -361 -267q-76 0 -98 66l-211 -612h-133l491 1423h-182
l8 29h330l-236 -676q-33 -92 -32 -127q0 -74 67 -74z" />
    <glyph glyph-name="pi" unicode="&#x3c0;" horiz-adv-x="1019" 
d="M643 -25q-75 -1 -99 51t3 203q47 219 141 562q-115 4 -311 4l-10 -47q-45 -213 -131 -442t-152 -296q-59 -27 -107 -35l-2 29q121 121 208 348t134 447q-110 0 -190 -45q-25 -14 -74 -52l-18 33l18 18q17 15 23 20t23 21q74 68 174 91q55 10 100 10l479 -8q46 0 70 12
t57 53l37 -18q-31 -66 -92 -141q-33 -6 -138 -7q-27 -86 -118 -526q-43 -193 47 -192q51 0 114 69l19 -33q-94 -129 -205 -129z" />
    <glyph glyph-name="endash" unicode="&#x2013;" horiz-adv-x="1024" 
d="M-55 430l8 29h1024l-8 -29h-1024z" />
    <glyph glyph-name="emdash" unicode="&#x2014;" horiz-adv-x="2048" 
d="M211 430l8 29h1516l-9 -29h-1515z" />
    <glyph glyph-name="quoteleft" unicode="&#x2018;" 
d="M485 1253q41 1 63 -25t22 -68t-28 -70t-85 -29q-57 0 -95 43q-36 42 -36 116t36 142q38 68 94 106q101 69 162 88l9 -26q-99 -35 -153 -100q-54 -64 -54 -115t10 -76q14 14 55 14z" />
    <glyph glyph-name="quoteright" unicode="&#x2019;" 
d="M460 1364q-34 0 -56 26t-22 68t29 70q28 28 85 28t94 -43t37 -117t-37 -141q-37 -69 -93 -107q-99 -68 -163 -87l-8 26q99 36 163 113q43 50 43 102t-10 76q-28 -14 -62 -14z" />
    <glyph glyph-name="quotesinglbase" unicode="&#x201a;" 
d="M190 -88q0 51 -10 76q-2 0 -15 -8t-47 -7q-34 0 -56 26q-22 25 -22 67t29 71q28 29 85 29t94 -43t37 -117q0 -194 -224 -306q-36 -20 -69 -30l-8 27q97 35 152 99q54 65 54 116z" />
    <glyph glyph-name="quotedblleft" unicode="&#x201c;" horiz-adv-x="909" 
d="M527 1253q34 1 56 -25q21 -26 21 -68t-28 -70t-84 -29q-57 0 -95 43q-37 42 -37 116t37 142t93 106q99 68 163 88l9 -26q-99 -35 -153 -100q-54 -64 -54 -115t10 -76q28 14 62 14zM786 1239q14 14 56 14q42 1 62 -25q22 -26 22 -68t-28 -70t-85 -29q-57 0 -94 43
q-37 42 -37 116t37 142t93 106q99 68 163 88l8 -26q-99 -35 -153 -100q-54 -64 -54 -115t10 -76z" />
    <glyph glyph-name="quotedblright" unicode="&#x201d;" horiz-adv-x="909" 
d="M502 1364q-41 0 -63 26q-21 26 -21 68t27 70q28 28 85 28q56 0 94 -43t38 -117t-37 -141q-37 -69 -93 -107q-101 -69 -163 -87l-9 26q99 35 153 100q54 63 54 115t-10 76q-14 -14 -55 -14zM816 1364q-34 0 -56 26t-21 68q0 42 28 70t85 28t94 -43t37 -117t-37 -141
q-37 -69 -93 -107q-99 -68 -163 -87l-8 26q99 35 153 100q54 63 54 115t-10 76q-29 -14 -63 -14z" />
    <glyph glyph-name="quotedblbase" unicode="&#x201e;" horiz-adv-x="909" 
d="M195 -88q0 51 -11 76q-4 0 -15 -8t-46 -7q-35 0 -57 26q-22 25 -21 67q0 42 28 71t85 29t94 -43t37 -117t-37 -142t-93 -106q-98 -68 -163 -88l-8 27q99 35 153 100q54 64 54 115zM475 166q61 0 98 -43t37 -117t-37 -142t-93 -106q-98 -68 -163 -88l-8 27q99 35 153 100
q54 64 54 115t-10 76q-5 0 -23 -11q-20 -4 -47 -4q-26 0 -48 26t-21 58q0 109 108 109z" />
    <glyph glyph-name="dagger" unicode="&#x2020;" horiz-adv-x="1062" 
d="M393 282q0 92 -61 154q123 51 182 246l49 156l23 82h-64q-111 0 -188 -35q-70 -37 -105 -37t-59 26t-23 63q0 39 24 65t63 26q45 0 100 -39q74 -41 219 -41h41l22 82q37 133 34 200q-3 68 -8 110t-5 57q0 88 94 88q33 1 60 -17t26 -54t-11 -54q-11 -18 -13 -22
q-1 -4 -13 -20q-76 -99 -135 -292l-22 -78h57q149 0 247 58q40 22 74 22q33 0 57 -24t24 -64q0 -39 -24 -66q-36 -41 -86 -25q-49 16 -75 36q-78 35 -209 35h-74l-20 -80q-43 -168 -43 -260t61 -144q-78 -48 -124 -116t-87 -209l-188 -684h-29l160 587q49 176 49 268z" />
    <glyph glyph-name="daggerdbl" unicode="&#x2021;" horiz-adv-x="1062" 
d="M551 580q0 -92 61 -144q-123 -51 -182 -246l-49 -155l-23 -82h64q111 0 188 35q70 37 105 37t59 -26q24 -25 23 -63q0 -38 -24 -65q-23 -27 -63 -27t-66 18t-34 21q-74 41 -219 41h-41l-22 -65q-37 -133 -34 -200t8 -110t5 -57q0 -88 -94 -88q-33 0 -59 17t-27 41
q0 56 25 89q2 3 13 19q79 112 134 293l23 61h-58q-137 0 -215 -41q-10 -3 -42 -21t-65 -18q-32 0 -56 25t-24 63t24 66q24 27 54 27q30 -1 42 -5t36 -17q94 -50 238 -50h74l20 80q43 168 43 260t-61 143q123 51 182 246l49 156l23 82h-64q-111 0 -188 -35q-70 -37 -105 -37
t-59 26t-23 63q0 39 24 65t63 26q45 0 100 -39q74 -41 219 -41h41l22 82q37 133 34 200q-3 68 -8 110t-5 57q0 88 94 88q33 1 60 -17t26 -54t-11 -54q-11 -18 -13 -22q-1 -4 -13 -20q-76 -99 -135 -292l-22 -78h57q149 0 247 58q40 22 74 22q33 0 57 -24t24 -64
q0 -39 -24 -66q-36 -41 -86 -25q-49 16 -75 36q-78 35 -209 35h-74l-20 -80q-43 -168 -43 -260z" />
    <glyph glyph-name="bullet" unicode="&#x2022;" horiz-adv-x="1024" 
d="M147 729q1 152 107 258q106 107 258 107t258 -106t106 -259q0 -152 -106 -258t-258 -106t-258 106t-107 258z" />
    <glyph glyph-name="ellipsis" unicode="&#x2026;" horiz-adv-x="2048" 
d="M1610 70q0 40 28 68t68 28q39 0 68 -28q28 -28 28 -68t-28 -69q-28 -28 -68 -28q-39 0 -68 28q-28 28 -28 69zM928 70q0 40 28 68t68 28q41 0 69 -28q27 -28 27 -68t-28 -69q-28 -28 -68 -28q-41 0 -69 28q-27 28 -27 69zM246 70q0 40 28 68t68 28q39 0 68 -28
q28 -28 28 -68t-28 -69q-28 -28 -68 -28q-39 0 -68 28q-28 28 -28 69z" />
    <glyph glyph-name="perthousand" unicode="&#x2030;" horiz-adv-x="2048" 
d="M705 160q0 -160 137 -160q80 0 138 66t84 156q48 167 48 255q0 154 -141 154q-91 0 -155 -83q-110 -144 -111 -388zM590 225q0 80 41 177q41 98 134 178t211 80t184 -72q66 -70 67 -176q0 -160 -111 -300t-287 -141q-107 1 -173 67t-66 187zM100 1008q0 80 41 177
t134 177t217 80t184 -73t61 -175q-1 -160 -111 -300t-286 -140q-116 0 -178 64t-62 190zM215 942q0 -160 137 -160q195 0 259 379q11 66 12 99q0 154 -142 153q-92 0 -155 -83q-111 -146 -111 -388zM1425 160q0 -160 138 -160q80 0 138 66t84 156q48 167 48 255
q0 154 -141 154q-92 0 -156 -83q-112 -146 -111 -388zM205 0l887 1481l34 -23l-886 -1483zM1311 225q0 80 41 177q41 98 134 178t211 80q119 0 185 -72q66 -70 66 -176q0 -160 -111 -300t-287 -141q-106 1 -172 67t-67 187z" />
    <glyph glyph-name="guilsinglleft" unicode="&#x2039;" 
d="M147 382q0 -138 125 -196l-12 -28q-52 18 -107 56q-112 77 -112 216q0 96 62 167q108 124 307 138v-28q-109 -7 -186 -97t-77 -228z" />
    <glyph glyph-name="guilsinglright" unicode="&#x203a;" 
d="M340 450q0 -83 -62 -154q-108 -124 -307 -138v28q109 8 186 98t77 227q0 138 -125 196l12 28q219 -76 219 -285z" />
    <glyph glyph-name="fraction" unicode="&#x2044;" horiz-adv-x="303" 
d="M-338 -20l885 1478l37 -20l-885 -1479z" />
    <glyph glyph-name="Euro" unicode="&#x20ac;" horiz-adv-x="987" 
d="M981 1364q53 0 84 57l31 -6l-125 -334h-31l2 31q2 18 2 57q0 111 -41 170q-12 23 -50 49t-89 25q-118 0 -228 -136t-192 -376h530l-12 -29h-526q-33 -93 -68 -256h500l-8 -28h-498q-29 -152 -29 -262q0 -326 199 -326q100 0 182 76q68 57 123 170l27 -15q-4 -4 -9 -16
q-35 -84 -97 -141q-62 -58 -116 -80t-118 -23q-115 0 -199 92q-123 137 -123 447q0 35 2 51l2 27h-135l11 28h127q16 137 59 256h-119l10 29h119q46 122 120 229q73 107 211 209t263 103q68 0 156 -59q30 -19 53 -19z" />
    <glyph glyph-name="afii61289" unicode="&#x2113;" horiz-adv-x="724" 
d="M549 1448q-55 0 -103 -108t-100 -361l-59 -277q115 116 201 264t112 279q41 203 -51 203zM258 -25q-121 0 -158 80q-41 80 2 291l43 195l-131 -95l-14 39l158 119l51 248q59 276 100 386t117 181q76 82 151 82t99 -76t-2 -184q-66 -311 -404 -616l-47 -226
q-37 -203 -11 -271t112 -69q114 1 229 136l27 -25q-135 -195 -322 -195z" />
    <glyph glyph-name="trademark" unicode="&#x2122;" horiz-adv-x="2009" 
d="M1040 682h117v754h-117v22h250l205 -592l205 592h244v-22h-117v-754h117v-23h-351v23h115v727l-264 -760l-262 754v-721h116v-23h-258v23zM813 659h-350v23h115v754h-62q-108 0 -160 -81q-27 -42 -43 -108h-18v211h684v-211h-18q-31 129 -102 164q-50 25 -101 25h-62
v-754h117v-23z" />
    <glyph glyph-name="Omega" unicode="&#x2126;" horiz-adv-x="1290" 
d="M111 96h196q-229 332 -153 692q61 294 246 472q186 178 408 178t328 -171t44 -464q-72 -336 -453 -707h197q59 0 89 27t81 131l41 -4l-95 -250h-405l-4 31q4 6 78 105q75 100 105 148t87 143q107 178 146 359q61 299 -18 450q-79 150 -241 150t-301 -151
q-139 -152 -202 -449t49 -631q10 -30 41 -124l-19 -31h-401l16 250l37 4q6 -98 28 -128t75 -30z" />
    <glyph glyph-name="estimated" unicode="&#x212e;" horiz-adv-x="1929" 
d="M1559 737v402q0 29 -19 47q-213 209 -498 209t-495 -215q-18 -18 -19 -50v-393q0 -12 11 -12h1011q9 0 9 12zM1860 684h-1321q-10 0 -11 -8v-400q0 -25 17 -45q211 -217 513 -217t513 242h117q-111 -129 -282 -206t-364 -77q-338 0 -576 214q-238 213 -239 517
q0 304 239 519q240 215 578 215t577 -214t239 -519v-21z" />
    <glyph glyph-name="partialdiff" unicode="&#x2202;" horiz-adv-x="937" 
d="M522 795h-2q-129 0 -241 -123q-111 -137 -158 -350q-25 -117 11 -206t126 -89q141 0 272 217q92 143 175 393q-11 55 -61 107t-122 51zM508 862h2q72 0 133 -37t90 -108q37 117 58 213q39 168 20 330q-13 88 -69 158t-142 71q-123 0 -256 -96q-23 -5 -32 29t7 63
q129 80 261 80q229 0 297 -287q47 -188 -15 -467q-61 -305 -194 -522q-193 -313 -416 -314q-145 0 -209 108q-63 108 -25 295t172 333q64 67 150 109t168 42z" />
    <glyph glyph-name="Delta" unicode="&#x2206;" horiz-adv-x="1124" 
d="M786 74l-141 1153l-627 -1153h768zM913 0h-993l6 35l760 1384l55 19l179 -1403z" />
    <glyph glyph-name="product" unicode="&#x220f;" horiz-adv-x="1355" 
d="M1305 1413v-43q-115 -8 -140 -25t-24 -90v-1259q-1 -82 25 -105t134 -30v-41h-426v41q111 8 135 27t23 108v1304q0 36 -12 48t-51 12h-426q-41 0 -53 -9t-11 -44v-1311q-1 -84 19 -104t127 -31v-41h-412v41q106 10 131 29t25 106v1259q0 71 -24 89t-138 26v43h1098z" />
    <glyph glyph-name="summation" unicode="&#x2211;" horiz-adv-x="1138" 
d="M756 1360h-389l368 -684l-418 -750h486q119 0 157 34t91 196l45 -13l-74 -323h-813v35l422 747l-412 774v37h805l20 -291l-43 -8q-18 117 -53 186q-18 36 -54 48t-138 12z" />
    <glyph glyph-name="minus" unicode="&#x2212;" horiz-adv-x="1214" 
d="M27 473v37h983v-37h-983z" />
    <glyph glyph-name="uni2215" unicode="&#x2215;" horiz-adv-x="303" 
d="M-338 -20l885 1478l37 -20l-885 -1479z" />
    <glyph glyph-name="uni2219" unicode="&#x2219;" 
d="M111 526q0 39 28 68q29 29 68 29t67 -29t29 -68q0 -40 -29 -68q-30 -28 -68 -28t-66 28t-29 68z" />
    <glyph glyph-name="radical" unicode="&#x221a;" horiz-adv-x="1157" 
d="M1118 1833l-295 -2114l-28 -18l-404 1120l-160 -76l-16 56l256 121l328 -934h4l252 1863z" />
    <glyph glyph-name="infinity" unicode="&#x221e;" horiz-adv-x="1441" 
d="M1083 793h-2q-107 0 -241 -152q-39 -45 -47 -53q106 -115 164 -160t135 -45t128 60q50 59 50 149t-52 146t-135 55zM410 383h2q57 1 89 21l48 30q21 13 75 67q53 53 74 81q-57 72 -88 104t-91 70q-60 37 -133 37q-73 -1 -123 -63t-49 -147t55 -143q55 -57 141 -57z
M1354 592v-2q0 -127 -81 -207t-179 -80t-172 51t-179 168q-63 -72 -102 -108t-105 -74q-66 -37 -137 -37q-113 0 -191 81t-79 202q0 122 79 202q80 80 188 80t186 -57t168 -162q132 149 186 175q91 44 156 44q118 0 190 -76t72 -200z" />
    <glyph glyph-name="integral" unicode="&#x222b;" horiz-adv-x="829" 
d="M624 1649q-24 0 -46 -27t-39 -111q-16 -84 -11 -215l35 -798q24 -545 -62 -720q-42 -85 -88 -117q-47 -32 -101 -32t-81 23q-27 22 -27 54t21 51q23 19 53 19t52 -33q22 -34 43 -34q47 0 72 94q26 94 18 248l-37 864q-20 494 66 662q73 147 185 145q50 0 80 -20
q31 -20 31 -52t-19 -49t-47 -17t-50 32q-24 33 -48 33z" />
    <glyph glyph-name="approxequal" unicode="&#x2248;" horiz-adv-x="1019" 
d="M887 537l53 -43q-78 -176 -227 -177q-70 0 -205 76q-104 63 -166 64q-96 0 -174 -140l-59 41q86 178 243 179q75 0 131 -33t95 -60q71 -47 158 -47q71 0 151 140zM352 838q87 0 201 -76q10 -3 39 -22t40 -22t23 -8q13 -4 21 -6t19 -4t24 -2q92 1 168 140l53 -43
q-78 -176 -227 -177q-73 0 -191 70t-180 70q-96 0 -174 -140l-59 44q86 176 243 176z" />
    <glyph glyph-name="notequal" unicode="&#x2260;" horiz-adv-x="1054" 
d="M963 791v-84h-310l-121 -265h431v-82h-463l-94 -208l-64 28l80 180h-264v82h299l116 265h-415v84h448l94 206l66 -30l-80 -176h277z" />
    <glyph glyph-name="lessequal" unicode="&#x2264;" horiz-adv-x="1087" 
d="M995 59h-805v84h805v-84zM989 223l-790 420v84l790 420v-100l-700 -357v-6l700 -360v-101z" />
    <glyph glyph-name="greaterequal" unicode="&#x2265;" horiz-adv-x="1085" 
d="M993 59h-803v84h803v-84zM201 1147l790 -420v-84l-790 -420v101l700 358v4l-700 361v100z" />
    <glyph glyph-name="lozenge" unicode="&#x25ca;" horiz-adv-x="1171" 
d="M987 690l-315 725h-6l-318 -723l318 -727h6zM1079 690l-362 -817h-99l-364 817l367 819h96z" />
    <glyph glyph-name="zero.taboldstyle" unicode="&#xf643;" horiz-adv-x="987" 
d="M514 877q-96 0 -172 -80t-114 -197q-74 -228 -74 -403q0 -197 198 -197q84 0 152 65t104 153q92 229 99 460q0 199 -193 199zM518 905q158 0 248 -98q90 -97 90 -243t-64 -278t-187 -224q-121 -92 -277 -91q-156 0 -240 110t-84 232q0 221 156 407t358 185z" />
    <glyph glyph-name="one.taboldstyle" unicode="&#xf644;" horiz-adv-x="987" 
d="M78 0l8 29h160l221 821h-170l8 29h477l-8 -29h-164l-221 -821h168l-8 -29h-471z" />
    <glyph glyph-name="two.taboldstyle" unicode="&#xf645;" horiz-adv-x="987" 
d="M637 760q0 76 -43 114t-121 39q-78 -1 -129 -31t-51 -68t7 -60t7 -47q0 -66 -88 -66q-37 0 -61 19q-24 20 -23 50q-1 30 15 62t50 74q34 40 108 68t175 28q154 0 236 -69t82 -182t-88 -189t-288 -186q-200 -109 -282 -177v-4h510q55 0 71 38q5 13 11 36h29l-55 -209h-738
l-6 16q117 123 412 328q260 182 260 416z" />
    <glyph glyph-name="three.taboldstyle" unicode="&#xf646;" horiz-adv-x="987" 
d="M737 1214q0 199 -166 199q-176 0 -176 -174q0 -57 -19 -84t-69 -27q-67 0 -67 82t97 157t234 75t233 -76t97 -184q0 -68 -38 -132q-104 -177 -417 -284l3 -4q137 0 236 -64t99 -215q0 -178 -202 -355t-430 -177q-129 0 -188 42q-58 42 -58 82q0 70 71 70q55 0 91 -63
t60 -83q26 -19 85 -19q158 0 283 168t125 350q1 106 -55 174t-153 68t-173 -31l-9 30q20 5 94 22q138 31 225 84q87 54 137 152t50 217z" />
    <glyph glyph-name="four.taboldstyle" unicode="&#xf647;" horiz-adv-x="987" 
d="M979 1161q1 -17 -19 -37t-100 -88q-311 -258 -569 -526q-199 -201 -354 -481h522l176 661h156l-177 -661h232l-8 -29h-232l-110 -416q-77 28 -156 0l111 416h-564q176 340 478 688l325 381q78 92 112 116t85 23q92 0 92 -47z" />
    <glyph glyph-name="five.taboldstyle" unicode="&#xf648;" horiz-adv-x="987" 
d="M766 1413q104 0 166 66l18 -15q-2 -2 -17 -28t-23 -37q-8 -10 -25 -35q-18 -25 -57 -52q-61 -42 -130 -42h-88q-100 0 -196 10l-103 -365q240 -8 359 -104t118 -254q0 -223 -202 -421t-447 -197q-100 1 -172 31t-71 87q0 33 21 56q22 23 44 23q23 0 35 -3q12 -2 21 -9
t15 -11q17 -10 41 -72q23 -61 122 -61q162 0 300 154t138 364q0 72 -25 125q-24 53 -60 81q-88 68 -304 68l178 651q137 -10 344 -10z" />
    <glyph glyph-name="six.taboldstyle" unicode="&#xf649;" horiz-adv-x="987" 
d="M160 205q0 -97 44 -151t134 -54q145 0 227 150q53 96 95 252t42 249q0 91 -45 149t-137 58t-219 -104q-57 -135 -99 -294t-42 -255zM548 887q118 1 208 -103t90 -254q0 -202 -155 -380t-345 -179q-158 -1 -236 103t-77 262q0 229 118 489q118 261 298 439t348 178
q103 0 165 -48t62 -108q0 -84 -90 -84q-37 0 -60 18t-22 46l8 71q0 63 -114 63t-201 -120q-88 -121 -174 -342l-49 -125l4 -4q104 78 222 78z" />
    <glyph glyph-name="seven.taboldstyle" unicode="&#xf64a;" horiz-adv-x="987" 
d="M102 -563q-94 0 -94 55q0 27 51 98l551 824q98 147 176 321h-532q-85 0 -112 -47q-28 -47 -50 -123h-29l82 314h713q-14 -104 -149 -381l-471 -961q-31 -61 -59 -81t-77 -19z" />
    <glyph glyph-name="eight.taboldstyle" unicode="&#xf64b;" horiz-adv-x="987" 
d="M823 1210q0 203 -202 203q-117 0 -191 -77t-74 -195q0 -80 31 -134t115 -122l90 -72q109 59 170 163t61 234zM129 280q0 -116 68 -198t178 -82q168 0 259 115t91 252q0 63 -27 115t-57 82t-98 87l-113 92l-45 -24q-141 -76 -199 -199q-58 -124 -57 -240zM375 -29
q-157 1 -265 107t-108 240t88 231q88 98 217 164l101 51q-86 72 -126 135t-40 160q0 151 103 267t276 116q129 0 229 -75t100 -208q0 -66 -21 -104t-33 -58t-41 -44q-28 -24 -42 -37q-14 -14 -49 -36t-48 -29q-12 -7 -52 -29t-48 -27l82 -70q154 -133 154 -279t-121 -303
q-57 -74 -152 -123t-204 -49z" />
    <glyph glyph-name="nine.taboldstyle" unicode="&#xf64c;" horiz-adv-x="987" 
d="M162 254q0 -236 178 -236q113 0 229 109q6 18 43 127t64 206t29 226q0 190 -191 191q-86 0 -157 -67q-119 -113 -174 -368q-21 -102 -21 -188zM129 -524q125 0 206 102t175 379l37 106l-4 5q-104 -78 -227 -78t-211 102q-87 102 -87 254q0 201 155 380t345 179
q158 0 236 -103t77 -261q1 -231 -107 -489t-284 -438q-176 -179 -352 -179q-125 0 -186 47t-62 108q0 84 90 84q37 0 60 -18t22 -45l-8 -72q0 -63 125 -63z" />
    <glyph glyph-name="cent.taboldstyle" unicode="&#xf654;" horiz-adv-x="987" 
d="M76 283q0 139 71 282q72 143 204 241t282 99q43 0 57 -4l82 156l29 -13l-76 -147q127 -33 127 -149t-104 -115q-66 0 -66 47q0 10 28 57t28 80t-31 43l-426 -807q55 -51 149 -51t173 66t128 149l29 -16q-154 -227 -367 -228q-76 0 -139 29l-84 -160l-29 13l84 161
q-73 37 -111 109t-38 158zM219 219q0 -86 39 -141l416 790q-29 8 -66 9q-92 0 -169 -70t-123 -175t-72 -216t-25 -197z" />
    <glyph glyph-name="dollar.oldstyle" unicode="&#xf724;" horiz-adv-x="1290" 
d="M129 315q0 -113 81 -207t230 -108l187 694l-78 64q-203 164 -203 342q0 125 62 212t165 130q102 43 267 43l30 114h29l-31 -116q80 -6 156 -36t127 -31t68 50l28 -8l-98 -373h-33q10 57 10 93q0 104 -60 183t-206 93l-162 -604l115 -92q82 -66 122 -106t73 -104t32 -145
q0 -131 -84 -237t-200 -150t-295 -45l-41 -147h-29l41 147q-100 6 -195 45t-120 39q-55 0 -88 -63l-29 8l109 406h28q-8 -53 -8 -91zM651 674l-182 -674q217 0 327 99t109 233q0 76 -34 134t-121 128zM473 1163q0 -70 38 -131t132 -137l31 -25l157 586q-168 0 -263 -77
t-95 -216z" />
    <glyph glyph-name="zero.oldstyle" unicode="&#xf730;" horiz-adv-x="987" 
d="M514 877q-96 0 -172 -80t-114 -197q-74 -228 -74 -403q0 -197 198 -197q84 0 152 65t104 153q92 229 99 460q0 199 -193 199zM518 905q158 0 248 -98q90 -97 90 -243t-64 -278t-187 -224q-121 -92 -277 -91q-156 0 -240 110t-84 232q0 221 156 407t358 185z" />
    <glyph glyph-name="one.oldstyle" unicode="&#xf731;" horiz-adv-x="684" 
d="M-74 0l8 29h160l221 821h-170l9 29h477l-8 -29h-164l-221 -821h168l-9 -29h-471z" />
    <glyph glyph-name="two.oldstyle" unicode="&#xf732;" horiz-adv-x="909" 
d="M598 760q0 76 -43 114t-121 39q-78 -1 -129 -31t-51 -68t7 -60t7 -47q0 -66 -88 -66q-36 0 -60 19q-24 20 -24 50t16 62t49 74q35 40 109 68t174 28q154 0 236 -69t82 -181t-87 -189q-87 -76 -288 -186t-283 -178v-4h510q57 0 71 38q5 13 11 36h29l-55 -209h-738l-6 16
q117 123 412 328q260 182 260 416z" />
    <glyph glyph-name="three.oldstyle" unicode="&#xf733;" horiz-adv-x="987" 
d="M737 1214q0 199 -166 199q-176 0 -176 -174q0 -57 -19 -84t-69 -27q-67 0 -67 82t97 157t234 75t233 -76t97 -184q0 -68 -38 -132q-104 -177 -417 -284l3 -4q137 0 236 -64t99 -215q0 -178 -202 -355t-430 -177q-129 0 -188 42q-58 42 -58 82q0 70 71 70q55 0 91 -63
t60 -83q26 -19 85 -19q158 0 283 168t125 350q1 106 -55 174t-153 68t-173 -31l-9 30q20 5 94 22q138 31 225 84q87 54 137 152t50 217z" />
    <glyph glyph-name="four.oldstyle" unicode="&#xf734;" horiz-adv-x="987" 
d="M979 1161q1 -17 -19 -37t-100 -88q-311 -258 -569 -526q-199 -201 -354 -481h522l176 661h156l-177 -661h232l-8 -29h-232l-110 -416q-77 28 -156 0l111 416h-564q176 340 478 688l325 381q78 92 112 116t85 23q92 0 92 -47z" />
    <glyph glyph-name="five.oldstyle" unicode="&#xf735;" horiz-adv-x="987" 
d="M766 1413q104 0 166 66l18 -15q-2 -2 -17 -28t-23 -37q-8 -10 -25 -35q-18 -25 -57 -52q-61 -42 -130 -42h-88q-100 0 -196 10l-103 -365q240 -8 359 -104t118 -254q0 -223 -202 -421t-447 -197q-100 1 -172 31t-71 87q0 33 21 56q22 23 44 23q23 0 35 -3q12 -2 21 -9
t15 -11q17 -10 41 -72q23 -61 122 -61q162 0 300 154t138 364q0 72 -25 125q-24 53 -60 81q-88 68 -304 68l178 651q137 -10 344 -10z" />
    <glyph glyph-name="six.oldstyle" unicode="&#xf736;" horiz-adv-x="987" 
d="M160 205q0 -97 44 -151t134 -54q145 0 227 150q53 96 95 252t42 249q0 91 -45 149t-137 58t-219 -104q-57 -135 -99 -294t-42 -255zM548 887q118 1 208 -103t90 -254q0 -202 -155 -380t-345 -179q-158 -1 -236 103t-77 262q0 229 118 489q118 261 298 439t348 178
q103 0 165 -48t62 -108q0 -84 -90 -84q-37 0 -60 18t-22 46l8 71q0 63 -114 63t-201 -120q-88 -121 -174 -342l-49 -125l4 -4q104 78 222 78z" />
    <glyph glyph-name="seven.oldstyle" unicode="&#xf737;" horiz-adv-x="987" 
d="M102 -563q-94 0 -94 55q0 27 51 98l551 824q98 147 176 321h-532q-85 0 -112 -47q-28 -47 -50 -123h-29l82 314h713q-14 -104 -149 -381l-471 -961q-31 -61 -59 -81t-77 -19z" />
    <glyph glyph-name="eight.oldstyle" unicode="&#xf738;" horiz-adv-x="987" 
d="M823 1210q0 203 -202 203q-117 0 -191 -77t-74 -195q0 -80 31 -134t115 -122l90 -72q109 59 170 163t61 234zM129 280q0 -116 68 -198t178 -82q168 0 259 115t91 252q0 63 -27 115t-57 82t-98 87l-113 92l-45 -24q-141 -76 -199 -199q-58 -124 -57 -240zM375 -29
q-157 1 -265 107t-108 240t88 231q88 98 217 164l101 51q-86 72 -126 135t-40 160q0 151 103 267t276 116q129 0 229 -75t100 -208q0 -66 -21 -104t-33 -58t-41 -44q-28 -24 -42 -37q-14 -14 -49 -36t-48 -29q-12 -7 -52 -29t-48 -27l82 -70q154 -133 154 -279t-121 -303
q-57 -74 -152 -123t-204 -49z" />
    <glyph glyph-name="nine.oldstyle" unicode="&#xf739;" horiz-adv-x="987" 
d="M162 254q0 -236 178 -236q113 0 229 109q6 18 43 127t64 206t29 226q0 190 -191 191q-86 0 -157 -67q-119 -113 -174 -368q-21 -102 -21 -188zM129 -524q125 0 206 102t175 379l37 106l-4 5q-104 -78 -227 -78t-211 102q-87 102 -87 254q0 201 155 380t345 179
q158 0 236 -103t77 -261q1 -231 -107 -489t-284 -438q-176 -179 -352 -179q-125 0 -186 47t-62 108q0 84 90 84q37 0 60 -18t22 -45l-8 -72q0 -63 125 -63z" />
    <glyph glyph-name="cent.oldstyle" unicode="&#xf7a2;" horiz-adv-x="987" 
d="M76 283q0 139 71 282q72 143 204 241t282 99q43 0 57 -4l82 156l29 -13l-76 -147q127 -33 127 -149t-104 -115q-66 0 -66 47q0 10 28 57t28 80t-31 43l-426 -807q55 -51 149 -51t173 66t128 149l29 -16q-154 -227 -367 -228q-76 0 -139 29l-84 -160l-29 13l84 161
q-73 37 -111 109t-38 158zM219 219q0 -86 39 -141l416 790q-29 8 -66 9q-92 0 -169 -70t-123 -175t-72 -216t-25 -197z" />
    </font>
</defs>
</svg>
